<?xml version="1.0" encoding="UTF-8"?>
<!-- Generator: Adobe Illustrator 28.0.0, SVG Export Plug-In . SVG Version: 6.00 Build 0)  -->
<svg enable-background="new 0 0 52.4 52.4" version="1.1" viewBox="0 0 52.4 52.4" xml:space="preserve" xmlns="http://www.w3.org/2000/svg">
<style type="text/css">
	.st0{clip-path:url(#SVGID_00000148633596418036366340000000533211153270838451_);fill:#00ABC4;}
</style>

<g fill="#00abc4"><path d="m4.0701 4.2831v40.606c0 1.7227 1.3341 3.0762 3.0321 3.0762h41.115v-4.6758h-39.659v-39.006z" clip-path="url(#SVGID_00000181789946767521546640000008311879044867067313_)" stroke-width="1.2216"/><path d="m43.072 14.198-5.2 11.8s-0.4 1-1.4 0.9c-0.8 0-1.2-1-1.2-1l-7.7-13.6-5.2 17.9s-0.2 0.8-1.2 0.8c-0.8 0-1.4-0.7-1.4-0.7l-7.1-7.2s0.6-0.6 1.9-1.8l6.2 6.2 5.3-18s0.3-1 1.2-1c1 0 1.4 0.9 1.4 0.9l8 13.6 4.2-9.9" clip-path="url(#SVGID_00000181789946767521546640000008311879044867067313_)"/><text x="8.2691021" y="41.084385" font-family="Sans" font-size="13.333px" xml:space="preserve"><tspan x="8.2691021" y="41.084385">WNTR</tspan></text></g></svg>
