<?xml version="1.0" encoding="UTF-8" standalone="no"?>
<!-- Generator: Adobe Illustrator 28.0.0, SVG Export Plug-In . SVG Version: 6.00 Build 0)  -->

<svg
   version="1.1"
   id="Ebene_1"
   x="0px"
   y="0px"
   viewBox="0 0 52.4 52.4"
   style="enable-background:new 0 0 52.4 52.4;"
   xml:space="preserve"
   sodipodi:docname="analysisChart.svg"
   inkscape:version="1.3 (0e150ed6c4, 2023-07-21)"
   xmlns:inkscape="http://www.inkscape.org/namespaces/inkscape"
   xmlns:sodipodi="http://sodipodi.sourceforge.net/DTD/sodipodi-0.dtd"
   xmlns="http://www.w3.org/2000/svg"
   xmlns:svg="http://www.w3.org/2000/svg"><defs
   id="defs2">&#10;	<defs
   id="defs1">&#10;		<rect
   id="SVGID_1_"
   x="7.9"
   y="8.2"
   width="37"
   height="35.5" />&#10;	</defs>&#10;	&#10;	&#10;</defs><sodipodi:namedview
   id="namedview2"
   pagecolor="#ffffff"
   bordercolor="#000000"
   borderopacity="0.25"
   inkscape:showpageshadow="2"
   inkscape:pageopacity="0.0"
   inkscape:pagecheckerboard="0"
   inkscape:deskcolor="#d1d1d1"
   inkscape:zoom="11.488549"
   inkscape:cx="26.200001"
   inkscape:cy="26.156479"
   inkscape:window-width="1920"
   inkscape:window-height="991"
   inkscape:window-x="-9"
   inkscape:window-y="-9"
   inkscape:window-maximized="1"
   inkscape:current-layer="Ebene_1" />&#10;<style
   type="text/css"
   id="style1">&#10;	.st0{clip-path:url(#SVGID_00000148633596418036366340000000533211153270838451_);fill:#00ABC4;}&#10;</style>&#10;&#10;<g
   id="g2"><path
     style="fill:#00abc4;stroke-width:1.22163"
     d="M 4.0700995,4.2830563 V 44.888914 c 0,1.722673 1.3341079,3.076202 3.0320634,3.076202 H 48.216944 V 43.28929 H 8.5575534 V 4.2830563 Z"
     clip-path="url(#SVGID_00000181789946767521546640000008311879044867067313_)"
     id="path1" /><path
     style="fill:#00abc4"
     d="m 43.072093,14.198007 -5.2,11.8 c 0,0 -0.4,1 -1.4,0.9 -0.8,0 -1.2,-1 -1.2,-1 l -7.7,-13.6 -5.2,17.9 c 0,0 -0.2,0.8 -1.2,0.8 -0.8,0 -1.4,-0.7 -1.4,-0.7 l -7.1,-7.2 c 0,0 0.6,-0.6 1.9,-1.8 l 0.4,0.4 5.8,5.8 5.3,-18.0000004 c 0,0 0.3,-1 1.2,-1 1,0 1.4,0.9 1.4,0.9 l 8,13.6000004 4.2,-9.9"
     clip-path="url(#SVGID_00000181789946767521546640000008311879044867067313_)"
     id="path2" /><text
     xml:space="preserve"
     style="font-size:13.3333px;font-family:Sans;-inkscape-font-specification:'Sans, Normal';fill:#00abc4;fill-opacity:1"
     x="8.2691021"
     y="41.084385"
     id="text2"><tspan
       sodipodi:role="line"
       id="tspan2"
       x="8.2691021"
       y="41.084385">WNTR</tspan></text></g></svg>
