<?xml version="1.0" encoding="utf-8"?>
<!-- Generator: Adobe Illustrator 28.0.0, SVG Export Plug-In . SVG Version: 6.00 Build 0)  -->
<svg version="1.1" id="Ebene_1" xmlns="http://www.w3.org/2000/svg" xmlns:xlink="http://www.w3.org/1999/xlink" x="0px" y="0px"
	 viewBox="0 0 52.4 52.4" style="enable-background:new 0 0 52.4 52.4;" xml:space="preserve">
<style type="text/css">
	.st0{clip-path:url(#SVGID_00000148633596418036366340000000533211153270838451_);fill:#00ABC4;}
</style>
<g>
	<defs>
		<rect id="SVGID_1_" x="7.9" y="8.2" width="37" height="35.5"/>
	</defs>
	<path style="clip-path:url(#SVGID_00000181789946767521546640000008311879044867067313_);fill:#00ABC4;" d="M7.9,8.2v33
		c0,1.4,1.1,2.5,2.5,2.5h33.9v-3.8H11.6V8.2H7.9z"/>
	<path style="clip-path:url(#SVGID_00000181789946767521546640000008311879044867067313_);fill:#00ABC4;" d="M44.9,16.2L39.7,28
		c0,0-0.4,1-1.4,0.9c-0.8,0-1.2-1-1.2-1l-7.7-13.6l-5.2,17.9c0,0-0.2,0.8-1.2,0.8c-0.8,0-1.4-0.7-1.4-0.7l-7.1-7.2
		c0,0,0.6-0.6,1.9-1.8l0.4,0.4l5.8,5.8l5.3-18c0,0,0.3-1,1.2-1c1,0,1.4,0.9,1.4,0.9l8,13.6l4.2-9.9"/>
</g>
</svg>
