<?xml version="1.0" encoding="utf-8"?>
<!-- Generator: Adobe Illustrator 28.0.0, SVG Export Plug-In . SVG Version: 6.00 Build 0)  -->
<svg version="1.1" id="Ebene_1" xmlns="http://www.w3.org/2000/svg" xmlns:xlink="http://www.w3.org/1999/xlink" x="0px" y="0px"
	 viewBox="0 0 76.5 76.5" style="enable-background:new 0 0 76.5 76.5;" xml:space="preserve">
<style type="text/css">
	.st0{clip-path:url(#SVGID_00000183212252609659786520000016539980839249282190_);fill:#00ABC4;}
</style>
<g>
	<defs>
		<rect id="SVGID_1_" x="1.3" y="1" width="72.5" height="74.9"/>
	</defs>
	<path style="clip-path:url(#SVGID_00000037651952116013148730000018221300297209015460_);fill:#00ABC4;" d="M33,59.8
		c-14.8,0-26.9-12.1-26.9-27.1c0-15,12-27.1,26.9-27.1c14.8,0,26.9,12.1,26.9,27.1C59.9,47.6,47.8,59.8,33,59.8 M72.5,68L57.6,52.6
		c4.4-5.4,7.1-12.4,7.1-19.9C64.7,15.2,50.5,1,33,1C15.5,1,1.4,15.2,1.3,32.7c0,17.5,14.2,31.6,31.7,31.6c6.6,0,12.7-2,17.7-5.4
		l15,15.6c1.8,1.9,4.7,1.9,6.6,0.1C74.2,72.8,74.3,69.8,72.5,68"/>
	<path style="clip-path:url(#SVGID_00000037651952116013148730000018221300297209015460_);fill:#00ABC4;" d="M54.2,21.6
		c-0.2-2.5-2.4-4.5-4.9-4.3c-2.5,0.2-4.4,2.4-4.3,4.9c0,0.7,0.2,1.3,0.5,1.8l-4.9,4.1c-0.8-0.5-1.8-0.9-2.9-0.8
		c-2.5,0.2-4.4,2.4-4.3,4.9c0.1,0.8,0.4,1.6,0.8,2.2l-5.2,6c-0.7-0.4-1.6-0.6-2.5-0.5c-1.5,0.1-2.8,1-3.6,2.2l-3.7-2
		c0-0.3,0.1-0.7,0-1c-0.2-2.5-2.4-4.5-4.9-4.3c-2.5,0.2-4.4,2.4-4.3,4.9c0.2,2.5,2.4,4.5,4.9,4.3c1.4-0.1,2.7-0.9,3.4-2l3.8,2
		c0,0.2,0,0.5,0,0.7c0.2,2.5,2.4,4.5,4.9,4.3c2.5-0.2,4.4-2.4,4.3-4.9c-0.1-0.9-0.4-1.7-0.8-2.3l5.1-6c0.8,0.4,1.7,0.7,2.6,0.6
		c2.5-0.2,4.4-2.4,4.3-4.9c0-0.7-0.3-1.4-0.6-2l4.8-4.1c0.8,0.6,1.9,1,3,0.9C52.5,26.4,54.4,24.2,54.2,21.6"/>
</g>
</svg>
