<?xml version="1.0" encoding="utf-8"?>
<!-- Generator: Adobe Illustrator 28.0.0, SVG Export Plug-In . SVG Version: 6.00 Build 0)  -->
<svg version="1.1" id="Ebene_1" xmlns="http://www.w3.org/2000/svg" xmlns:xlink="http://www.w3.org/1999/xlink" x="0px" y="0px"
	 viewBox="0 0 52.4 52.4" style="enable-background:new 0 0 52.4 52.4;" xml:space="preserve">
<style type="text/css">
	.st0{clip-path:url(#SVGID_00000167387735590580190040000004404796090697925778_);fill:#00ABC4;}
</style>
<g>
	<defs>
		<rect id="SVGID_1_" x="6.6" y="5.7" width="39.5" height="40.5"/>
	</defs>
	<path style="clip-path:url(#SVGID_00000183247018473239519310000008910162592678091939_);fill:#00ABC4;" d="M21.9,31.8V21.5v-1.7
		l0-1.5c0-0.1,0-0.1,0-0.2v-0.1l0,0c0-0.2-0.1-0.5-0.3-0.7c-0.5-0.5-1.3-0.5-1.8,0c-0.3,0.3-0.4,0.6-0.4,0.9v1.5v12v2.1
		c0,0.3,0.1,0.7,0.4,0.9c0.5,0.5,1.3,0.5,1.8,0c0.2-0.2,0.3-0.4,0.3-0.7l0,0V34c0-0.1,0-0.1,0-0.2L21.9,31.8z M33.4,17.7
		c0,0,0.1-0.4-0.2-0.5c-0.2-0.2-0.6,0.1-0.6,0.1s-8.2,6.5-10.3,8.3c-0.3,0.3-0.5,0.4-0.5,0.6c-0.1,0.3,0.3,0.5,0.3,0.5L32.7,35
		c0,0,0.3,0.2,0.5,0.1c0.2-0.1,0.2-0.4,0.2-0.4V17.7z M40.7,26c0,8.2-6.4,14.9-14.3,14.9S12.1,34.2,12.1,26
		c0-8.2,6.4-14.9,14.3-14.9S40.7,17.7,40.7,26 M46.2,26c0-11.2-8.9-20.3-19.8-20.3S6.6,14.8,6.6,26s8.9,20.3,19.8,20.3
		S46.2,37.1,46.2,26"/>
</g>
</svg>
