<?xml version="1.0" encoding="utf-8"?>
<!-- Generator: Adobe Illustrator 28.0.0, SVG Export Plug-In . SVG Version: 6.00 Build 0)  -->
<svg version="1.1" id="Ebene_1" xmlns="http://www.w3.org/2000/svg" xmlns:xlink="http://www.w3.org/1999/xlink" x="0px" y="0px"
	 viewBox="0 0 52.4 52.4" style="enable-background:new 0 0 52.4 52.4;" xml:space="preserve">
<style type="text/css">
	.st0{fill:#00ABC4;}
	.st1{clip-path:url(#SVGID_00000154415107275108366730000008554661406202089910_);fill:#00ABC4;}
	.st2{clip-path:url(#SVGID_00000112627057375372754890000018422063844593847460_);fill:#00ABC4;}
</style>
<polygon class="st0" points="19.6,23.5 16.4,23.5 16.4,20.4 13.2,20.4 13.2,23.5 10,23.5 10,26.8 13.2,26.8 13.2,30 16.4,30 
	16.4,26.8 19.6,26.8 "/>
<polygon class="st0" points="7,33.3 7,36.5 3.8,36.5 3.8,39.8 7,39.8 7,43 10.3,43 10.3,39.8 13.5,39.8 13.5,36.5 10.3,36.5 
	10.3,33.3 "/>
<g>
	<defs>
		<rect id="SVGID_1_" x="3.8" y="4.6" width="44.8" height="43.3"/>
	</defs>
	<path style="clip-path:url(#SVGID_00000051380687315568869000000015430468560656164997_);fill:#00ABC4;" d="M24.3,28.7
		c0-0.1,0-0.2,0-0.3v-1.3c0,0,0-3.6,3.6-3.6h16.9c0,0,3.6,0,3.6,3.6v0.8c0,0,0,0.6,0,0.8H24.3z"/>
</g>
<rect x="33.9" y="4.6" class="st0" width="4.9" height="19.3"/>
<g>
	<defs>
		<rect id="SVGID_00000016768746410293635640000002071869610725002898_" x="3.8" y="4.6" width="44.8" height="43.3"/>
	</defs>
	<path style="clip-path:url(#SVGID_00000157281011461932842960000001501699309256080541_);fill:#00ABC4;" d="M24.5,31.8
		c0,0,0,3-0.8,8c-0.8,5-2.3,7.8-2.3,7.8h6.1c0,0,0.7-2,1.3-4.3c0.6-2.2,0.7-3.5,0.7-3.5s0.2-1.6,1.5-1.6c1.5,0,1.5,1.6,1.5,1.6
		s0.1,1.6-0.4,3.8c-0.4,1.8-1.1,4.2-1.1,4.2h6.1c0,0,0.9-2,1.4-4.7c0.4-2.4,0.4-3,0.4-3s0.1-1.6,1.6-1.6C42,38.4,42,40,42,40
		s0.1,1.2-0.5,3.8c-0.4,2.2-1.2,4-1.2,4h6.4c0,0,1.4-3.3,1.7-8.4c0.2-2.9,0-7.7,0-7.7L24.5,31.8z"/>
</g>
</svg>
