<?xml version="1.0" encoding="utf-8"?>
<!-- Generator: Adobe Illustrator 28.0.0, SVG Export Plug-In . SVG Version: 6.00 Build 0)  -->
<svg version="1.1" id="Ebene_1" xmlns="http://www.w3.org/2000/svg" xmlns:xlink="http://www.w3.org/1999/xlink" x="0px" y="0px"
	 viewBox="0 0 52.4 52.4" style="enable-background:new 0 0 52.4 52.4;" xml:space="preserve">
<style type="text/css">
	.st0{clip-path:url(#SVGID_00000029042486317682523540000013089031855261515679_);fill:#00ABC4;}
</style>
<g>
	<defs>
		<rect id="SVGID_1_" x="6" y="6.8" width="40.4" height="38.8"/>
	</defs>
	<path style="clip-path:url(#SVGID_00000125564474382155320980000007516134359073869488_);fill:#00ABC4;" d="M10,25.3
		c0.2,0.1,0.4,0.1,0.7,0.1c0.1,0,0.3-0.1,0.4-0.1l4,10.1c-0.5,0.4-0.8,1-0.8,1.7c0,1.3,1,2.3,2.3,2.3c0,0,0,0,0.1,0l0.8,2.1H10v-2.5
		v-0.6V25.3z M17.8,39.1c0.4-0.3,0.7-0.6,0.9-1.1l16.9,2.4c0,0.5,0.2,0.9,0.5,1.2h-7.3h-10L17.8,39.1z M20.2,15.1h5.3v-4h-6.9H10
		H8.6H6v0.6v2.4v1v2.5v5.1v15.7v0.6v2.5V45v0.6h4h20.4H39h1.4H43l0-0.6l0-2.4l0-1l0-2.5v-5v-5.8h-4l0,4.2v5.9
		c-0.3-0.2-0.7-0.3-1.1-0.3c-0.9,0-1.6,0.5-2,1.2l-17.2-2.4c-0.2-1-1.1-1.8-2.2-1.8c-0.1,0-0.2,0.1-0.3,0.1l-4-10.1
		c0.5-0.4,0.8-1,0.8-1.7c0-1.3-1-2.3-2.3-2.3c-0.2,0-0.5,0.1-0.7,0.1l0-3.3v-2.5H20.2z M20.4,30.3L19,34.9l4.7-1.5L20.4,30.3z
		 M41.4,18l-6.2-6L21.8,25.8l-1,3.2l4.1,4l3.2-1.1L41.4,18z M45.8,10.7l-3.5-3.4c-1.4-1.3-2.7,0-2.7,0L36,11.1l6.2,6l3.6-3.7
		C47.1,12,45.8,10.7,45.8,10.7"/>
</g>
</svg>
