<svg xmlns="http://www.w3.org/2000/svg" width="16" height="16" fill="currentColor" class="bi bi-lightning-fill" viewBox="0 0 16 16">
  <path
     style="fill:#00a8c2;fill-opacity:1"
     d="M 22.656834 0.67341549 C 21.552277 0.67341549 20.657126 1.5695395 20.657126 2.6740949 L 20.657126 11.674847 L 21.65698 11.674847 L 21.65698 2.6740949 C 21.65698 2.1218173 22.104561 1.6737553 22.656834 1.6737552 L 28.156031 1.6737552 L 28.156031 3.6744346 C 28.156031 4.502852 28.827397 5.1749442 29.655812 5.1749441 L 31.65552 5.1749441 L 31.65552 14.673561 C 31.65552 15.225846 31.207948 15.673901 30.655666 15.673901 L 30.655666 16.674241 C 31.760223 16.674241 32.655374 15.778118 32.655374 14.673561 L 32.655374 5.1749441 L 28.156031 0.67341549 L 22.656834 0.67341549 z M 20.802559 12.585295 L 20.802559 16.584348 L 21.593353 16.584348 L 21.593353 12.585295 L 20.802559 12.585295 z M 22.018291 12.599124 L 22.018291 16.600483 L 22.765909 16.600483 L 22.765909 13.924459 L 22.797723 13.924459 L 24.558829 16.600483 L 25.215551 16.600483 L 25.215551 12.599124 L 24.465661 12.599124 L 24.465661 15.259014 L 24.431575 15.259014 L 22.679558 12.599124 L 22.018291 12.599124 z M 25.758654 12.672882 L 25.758654 16.674241 L 26.549447 16.674241 L 26.549447 15.330466 L 27.353875 15.330466 C 27.640542 15.330466 27.884254 15.272272 28.085587 15.157597 C 28.288919 15.039599 28.443826 14.881448 28.549155 14.682781 C 28.658945 14.474261 28.71239 14.243052 28.708223 14.007436 C 28.708223 13.758104 28.656761 13.531785 28.551428 13.329787 C 28.445906 13.130768 28.28747 12.965338 28.092404 12.852666 C 27.89241 12.732667 27.64642 12.672221 27.35842 12.672882 L 25.758654 12.672882 z M 26.547175 13.304433 L 27.20617 13.304433 C 27.424163 13.304433 27.594126 13.365191 27.717459 13.486522 C 27.840786 13.607187 27.903795 13.78077 27.903795 14.007436 C 27.907395 14.139502 27.879076 14.269717 27.819716 14.38775 C 27.766476 14.489973 27.682887 14.575671 27.581115 14.629768 C 27.464622 14.687128 27.335966 14.71394 27.20617 14.71044 L 26.547175 14.71044 L 26.547175 13.304433 z "
     transform="matrix(0.85950051,0,0,0.84736841,-14.91106,0.65007211)" />
</svg>
