<svg xmlns="http://www.w3.org/2000/svg" width="16" height="16" fill="currentColor" class="bi bi-lightning-fill" viewBox="0 0 16 16" >
  <path
	 fill-rule="evenodd"
     d="M 9.4955164,0.8858959 6.5938095,0.8940899 3.6921023,0.9002379 3.499572,0.9453225 C 3.401733,0.9685063 3.3088041,0.9967717 3.2199446,1.0293432 c -0.04443,0.016285 -0.088214,0.03452 -0.1306455,0.053281 -0.042431,0.018762 -0.083171,0.038104 -0.1237696,0.059429 -0.040599,0.021324 -0.080255,0.043652 -0.1191852,0.067627 -0.038932,0.023975 -0.077175,0.049115 -0.1146014,0.075825 -0.074855,0.05342 -0.1479143,0.1134058 -0.2177427,0.1782881 -0.061205,0.05687 -0.1156243,0.1140858 -0.165026,0.1721401 -0.049401,0.058054 -0.09322,0.11571 -0.1329375,0.1782879 -0.039717,0.062578 -0.075575,0.1283408 -0.1077249,0.1987809 -0.032151,0.07044 -0.060394,0.1458305 -0.087096,0.2274708 L 1.968498,2.3982695 1.9524546,5.531629 H 2.4200282 L 2.981575,5.548024 c 0,0 -0.021826,-1.9837637 -0.016044,-2.5206228 C 2.968411,2.7589719 2.972981,2.6129453 2.979282,2.525326 2.982432,2.481516 2.986472,2.452516 2.990743,2.431058 2.994993,2.409603 2.998973,2.394161 3.004494,2.379826 3.018942,2.342277 3.035165,2.306305 3.054918,2.2712138 3.074671,2.2361238 3.099055,2.2030928 3.123678,2.1707989 3.1483,2.1385039 3.174844,2.1077409 3.203899,2.0785799 c 0.029056,-0.029158 0.05863,-0.056288 0.091682,-0.081971 0.033052,-0.025685 0.06882,-0.049854 0.1054336,-0.071725 0.036612,-0.021872 0.074862,-0.041708 0.1146014,-0.059429 0.03974,-0.017721 0.08134,-0.033901 0.1237696,-0.047134 0.042428,-0.01323 0.08596,-0.024385 0.1306458,-0.032788 0.021707,-0.00409 0.092818,-0.0073 0.2177423,-0.01025 0.124924,-0.00294 0.3026278,-0.00632 0.5409189,-0.00819 0.4765815,-0.00377 1.1910556,-0.00411 2.18201,-0.00411 h 2.8169019 v 0.9631648 c 1.561e-4,0.3715861 0.00184,0.6200415 0.00689,0.7889754 0.00251,0.084468 0.00724,0.1487468 0.011461,0.1987809 0.00424,0.050034 0.00977,0.086291 0.016043,0.1127107 0.011395,0.048074 0.025845,0.094898 0.043548,0.1414007 0.017705,0.046504 0.038286,0.092836 0.061885,0.1373023 0.0236,0.044466 0.048845,0.087145 0.077928,0.1291051 0.029087,0.041962 0.062106,0.081921 0.096261,0.1209079 0.034161,0.038988 0.07119,0.077165 0.1100194,0.1127108 0.038815,0.035546 0.0784,0.068779 0.1214771,0.100415 0.04307,0.031636 0.08829,0.06086 0.135229,0.088118 0.04692,0.027259 0.09633,0.053409 0.146689,0.075824 0.07987,0.035541 0.138855,0.062016 0.201699,0.081971 0.03144,0.00997 0.06414,0.017602 0.100834,0.024591 0.03669,0.00698 0.07773,0.011788 0.126062,0.016395 0.09666,0.00922 0.22211,0.015123 0.403397,0.018444 0.181284,0.00332 0.416709,0.00593 0.733448,0.00819 l 1.148307,0.00819 v 4.1989941 c -2.18e-4,1.2862484 -0.0029,2.3511394 -0.0069,3.1067194 -0.004,0.75558 -0.01149,1.202235 -0.01834,1.250064 -0.0072,0.04942 -0.01873,0.09692 -0.03438,0.143451 -0.01565,0.04652 -0.03382,0.09226 -0.0573,0.135252 -0.02349,0.04298 -0.05189,0.08416 -0.0825,0.122958 -0.03063,0.0388 -0.06377,0.07463 -0.100834,0.108612 -0.03707,0.03398 -0.07639,0.06575 -0.119184,0.09426 -0.04282,0.02851 -0.08969,0.05341 -0.137523,0.07583 -0.04786,0.02242 -0.09679,0.04172 -0.148981,0.05739 -0.05219,0.01566 -0.10691,0.02861 -0.162735,0.0369 l -0.155857,0.02255 v 0.434449 0.436498 l 0.121478,-0.01435 c 0.09349,-0.0098 0.175851,-0.01865 0.249831,-0.03074 0.07399,-0.01209 0.140744,-0.02635 0.203989,-0.04304 0.06324,-0.01669 0.122086,-0.03582 0.183363,-0.05942 0.06128,-0.0236 0.124458,-0.05119 0.192531,-0.08402 0.05309,-0.0256 0.103926,-0.05288 0.153566,-0.08197 0.04963,-0.02908 0.09835,-0.05981 0.144395,-0.09221 0.04605,-0.0324 0.08836,-0.0669 0.130647,-0.102469 0.04227,-0.03556 0.08311,-0.07414 0.121476,-0.11271 0.03836,-0.03857 0.07571,-0.07745 0.110019,-0.118859 0.0343,-0.04142 0.06621,-0.08499 0.09627,-0.129105 0.03006,-0.04411 0.05685,-0.08862 0.0825,-0.135252 0.02569,-0.04664 0.04991,-0.09445 0.07105,-0.143451 0.01848,-0.04291 0.03416,-0.07728 0.04812,-0.112711 0.01397,-0.03542 0.02659,-0.07141 0.03667,-0.120907 0.01016,-0.04951 0.0184,-0.111559 0.02522,-0.196732 0.0069,-0.08518 0.01185,-0.193677 0.01604,-0.336084 0.0083,-0.284811 0.0121,-0.707306 0.01375,-1.350479 0.0015,-0.643176 0.0024,-1.508404 0.0024,-2.6825175 V 4.8943008 L 13.749518,4.6340414 C 13.586181,4.4907212 12.561725,3.5889661 11.473535,2.629839 Z M 4.6639219,5.7017197 c -0.1164786,0 -0.2331005,0.039777 -0.3162995,0.1168095 L 4.315534,5.8492682 2.0533028,7.9436394 C 1.9867429,8.0052644 1.952453,8.0991648 1.952453,8.191603 c 0,0.092439 0.03429,0.1842891 0.1008498,0.2459146 l 2.29432,2.1558494 0.03438,0.03074 c 0.1996784,0.123251 0.4662014,0.123325 0.6325996,-0.03074 0.1663986,-0.154064 0.1663986,-0.429983 0,-0.584047 L 4.9802219,9.9785812 3.5499968,8.6526928 h 6.0578289 c 0.232957,-0.030813 0.4309013,-0.2146615 0.4309013,-0.4303503 0,-0.2465016 -0.1646643,-0.4323263 -0.4309013,-0.463139 V 7.7284644 H 3.5499968 l 1.4302251,-1.2930999 0.03438,-0.030739 C 5.1477211,6.2197487 5.1466201,5.9725925 4.9802219,5.8185292 4.8970227,5.7414973 4.780401,5.7017197 4.6639219,5.7017197 Z M 2.1197714,11.488906 v 1.770583 1.768536 H 2.504832 2.8898927 V 13.259489 11.488906 H 2.504832 Z m 1.2124825,0.02049 v 1.760337 1.758288 h 0.3736006 0.3713083 v -1.186538 c 0,-0.652889 0.00987,-1.186536 0.020629,-1.186536 0.010758,0 0.415095,0.533958 0.9007667,1.186536 l 0.8847228,1.186538 H 6.2156248 6.5456766 V 13.269736 11.509399 H 6.1743683 5.8007676 v 1.17629 c 0,0.927747 -0.00685,1.176737 -0.029797,1.17629 -0.016013,-3.11e-4 -0.4203552,-0.529751 -0.9007667,-1.17629 l -0.873262,-1.17629 H 3.6645977 Z m 3.7726774,0.06147 v 1.770583 1.770585 h 0.3850609 0.3850605 v -0.60454 -0.602491 H 8.406803 c 0.4538028,0 0.5568542,-0.0079 0.7105288,-0.04304 0.2450249,-0.05602 0.3936504,-0.130445 0.575299,-0.290999 0.4944332,-0.437019 0.4932342,-1.2215 -0.0023,-1.66607 C 9.5120601,11.744967 9.3640091,11.668269 9.1173306,11.611863 8.952827,11.574237 8.8584577,11.570879 8.0217412,11.570879 Z m 0.7701214,0.54306 h 0.424025 c 0.2338003,6.5e-5 0.4640122,0.0088 0.5111223,0.02049 0.2625404,0.0652 0.4343851,0.269493 0.4561134,0.541012 0.024504,0.306213 -0.111577,0.54474 -0.3713083,0.647576 -0.1120458,0.04436 -0.165101,0.04973 -0.573007,0.05739 l -0.4469454,0.0082 v -0.637328 z" 
	 style="fill:#00a9c2;fill-opacity:1" />
</svg>
