<?xml version="1.0" encoding="utf-8"?>
<!-- Generator: Adobe Illustrator 28.0.0, SVG Export Plug-In . SVG Version: 6.00 Build 0)  -->
<svg version="1.1" id="Ebene_1" xmlns="http://www.w3.org/2000/svg" xmlns:xlink="http://www.w3.org/1999/xlink" x="0px" y="0px"
	 viewBox="0 0 52.4 52.4" style="enable-background:new 0 0 52.4 52.4;" xml:space="preserve">
<style type="text/css">
	.st0{clip-path:url(#SVGID_00000005961090587241901100000004948490234381189047_);fill:#00ABC4;}
</style>
<g>
	<defs>
		<rect id="SVGID_1_" x="6.4" y="5.9" width="39.5" height="40.5"/>
	</defs>
	<path style="clip-path:url(#SVGID_00000183229957366798501530000000719413342931541412_);fill:#00ABC4;" d="M30.7,26.3
		c0-0.2-0.2-0.3-0.5-0.6c-2.1-1.8-10.3-8.3-10.3-8.3s-0.3-0.3-0.6-0.1c-0.2,0.2-0.1,0.5-0.1,0.5v17c0,0,0,0.3,0.2,0.4
		c0.2,0.1,0.5-0.1,0.5-0.1l10.5-8.4C30.4,26.9,30.8,26.7,30.7,26.3 M32.8,35c0.3-0.3,0.4-0.6,0.4-0.9V32v-12v-1.5
		c0-0.3-0.1-0.7-0.4-0.9c-0.5-0.5-1.3-0.5-1.8,0c-0.2,0.2-0.3,0.4-0.3,0.7l0,0v0.1c0,0.1,0,0.1,0,0.2v1.5h0v1.7V32l0,2.1
		c0,0.1,0,0.1,0,0.2v0.1l0,0c0,0.2,0.1,0.5,0.3,0.7C31.5,35.5,32.3,35.5,32.8,35 M40.5,26.2c0,8.2-6.4,14.9-14.3,14.9
		s-14.3-6.7-14.3-14.9c0-8.2,6.4-14.9,14.3-14.9S40.5,18,40.5,26.2 M46,26.2C46,15,37.1,5.9,26.2,5.9C15.3,5.9,6.4,15,6.4,26.2
		s8.9,20.3,19.8,20.3C37.1,46.5,46,37.4,46,26.2"/>
</g>
</svg>
