<?xml version="1.0" encoding="utf-8"?>
<!-- Generator: Adobe Illustrator 28.0.0, SVG Export Plug-In . SVG Version: 6.00 Build 0)  -->
<svg version="1.1" id="Ebene_1" xmlns="http://www.w3.org/2000/svg" xmlns:xlink="http://www.w3.org/1999/xlink" x="0px" y="0px"
	 viewBox="0 0 52.4 52.4" style="enable-background:new 0 0 52.4 52.4;" xml:space="preserve">
<style type="text/css">
	.st0{clip-path:url(#SVGID_00000057147874740153346910000018321017556197877379_);fill:#00ABC4;}
</style>
<g>
	<defs>
		<rect id="SVGID_1_" x="5.9" y="3.5" width="40.6" height="45.4"/>
	</defs>
	<path style="clip-path:url(#SVGID_00000174568931056056501480000005983849316288664509_);fill:#00ABC4;" d="M43.5,23.9
		c-0.1,9.6-8,17.4-17.6,17.3c-9.6-0.1-17.4-8-17.3-17.6s8-17.4,17.6-17.3C35.8,6.4,43.6,14.3,43.5,23.9 M46.5,24
		c0.1-11.2-8.9-20.4-20.1-20.5C15.2,3.4,6,12.4,5.9,23.6C5.8,34.9,14.8,44,26,44.1C37.2,44.2,46.4,35.2,46.5,24"/>
	<path style="clip-path:url(#SVGID_00000174568931056056501480000005983849316288664509_);fill:#00ABC4;" d="M11.4,21.7
		c0,0.5-0.1,1-0.1,1.5c0,0.4,0,0.9,0.1,1.3c0.3,0,0.6,0,1.1,0c-0.1-0.5-0.1-1.1-0.1-1.6c0-0.4,0-0.8,0.1-1.2H11.4z M14.1,16.5
		l-0.9-0.6c-0.8,1.3-1.3,2.8-1.6,4.4h1C12.9,18.9,13.4,17.7,14.1,16.5 M19,12.2l-0.9-1.4c-1.6,1-3,2.4-4.1,4l1,0.6
		C16,14,17.4,12.9,19,12.2 M24.2,10.9c0.4,0,0.9,0,1.3,0.1V8.4c-2.2,0.1-4.4,0.7-6.2,1.7l1,1.5C21.5,11.2,22.8,10.9,24.2,10.9
		 M30.7,12.8l2.1-2.8c-1.8-0.9-3.8-1.5-5.9-1.6v2.8C28.3,11.6,29.6,12.1,30.7,12.8 M34.3,16.4l3.8-1.9c-1.1-1.5-2.4-2.8-4-3.8
		l-2.2,2.9C32.8,14.5,33.6,15.4,34.3,16.4 M36.1,21.5h4.7c-0.2-2.1-0.9-4.1-1.9-5.8l-3.9,2C35.5,18.8,35.9,20.1,36.1,21.5
		 M40.9,23.1c0-0.1,0-0.2,0-0.3h-4.7c0,1.7-0.4,3.4-1.1,4.9l4.3,1.9C40.3,27.7,40.9,25.5,40.9,23.1"/>
	<path style="clip-path:url(#SVGID_00000174568931056056501480000005983849316288664509_);fill:#00ABC4;" d="M18.2,44v1.7
		c0,0,0,3.2,3.2,3.2h9.4c0,0,3.2,0,3.2-3.2V44c-2.5,1-5.1,1.5-8,1.5C23.4,45.5,20.7,44.9,18.2,44"/>
	<path style="clip-path:url(#SVGID_00000174568931056056501480000005983849316288664509_);fill:#00ABC4;" d="M29.9,13.2
		c-0.5-0.2-1,0.1-1.2,0.5l0,0l-2.6,7.4c-1.5,0-2.6,1.2-2.6,2.8c0,1.5,1.2,2.8,2.6,2.8c1.5,0,2.6-1.2,2.6-2.8c0-0.8-0.3-1.5-0.9-2
		l2.7-7.4l0,0C30.6,13.8,30.4,13.4,29.9,13.2"/>
</g>
</svg>
