<?xml version="1.0" encoding="utf-8"?>
<!-- Generator: Adobe Illustrator 28.0.0, SVG Export Plug-In . SVG Version: 6.00 Build 0)  -->
<svg version="1.1" id="Ebene_1" xmlns="http://www.w3.org/2000/svg" xmlns:xlink="http://www.w3.org/1999/xlink" x="0px" y="0px"
	 viewBox="0 0 52.4 52.4" style="enable-background:new 0 0 52.4 52.4;" xml:space="preserve">
<style type="text/css">
	.st0{fill:#00ABC4;}
</style>
<g>
	<path class="st0" d="M18.4,42v-1.8V11.7V9.9c0-1.9-2-1.9-2-1.9h-5.2c-2,0-2,1.9-2,1.9v1.8v28.5V42c0,0,0,1.9,2,1.9h5.2
		C16.4,43.9,18.4,43.9,18.4,42"/>
	<path class="st0" d="M31.3,42v-1.8V21.7v-1.8c0-1.9-2-1.9-2-1.9h-5.2c-2,0-2,1.9-2,1.9v1.8v18.5V42c0,0,0,1.9,2,1.9h5.2
		C29.3,43.9,31.3,43.9,31.3,42"/>
	<path class="st0" d="M43.7,42v-1.8v-8.5v-1.8c0-1.9-2-1.9-2-1.9h-5.2c-2,0-2,1.9-2,1.9v1.8v8.5V42c0,0,0,1.9,2,1.9h5.2
		C41.6,43.9,43.7,43.9,43.7,42"/>
</g>
</svg>

