<?xml version="1.0" encoding="utf-8"?>
<!-- Generator: Adobe Illustrator 28.0.0, SVG Export Plug-In . SVG Version: 6.00 Build 0)  -->
<svg version="1.1" id="Ebene_1" xmlns="http://www.w3.org/2000/svg" xmlns:xlink="http://www.w3.org/1999/xlink" x="0px" y="0px"
	 viewBox="0 0 52.4 52.4" style="enable-background:new 0 0 52.4 52.4;" xml:space="preserve">
<style type="text/css">
	.st0{clip-path:url(#SVGID_00000054245804766048983970000008535130637062587536_);fill:#00ABC4;}
</style>
<g>
	<defs>
		<rect id="SVGID_1_" x="5.9" y="3.5" width="40.6" height="45.3"/>
	</defs>
	<clipPath id="SVGID_00000020368012507552692030000000123214095431059610_">
		<use xlink:href="#SVGID_1_"  style="overflow:visible;"/>
	</clipPath>
	<path style="clip-path:url(#SVGID_00000020368012507552692030000000123214095431059610_);fill:#00ABC4;" d="M43.5,23.9
		c-0.1,9.6-8,17.4-17.6,17.3c-9.6-0.1-17.4-8-17.3-17.6s8-17.4,17.6-17.3C35.8,6.4,43.5,14.3,43.5,23.9 M46.5,24
		c0.1-11.2-8.9-20.4-20.1-20.5C15.2,3.4,6,12.4,5.9,23.6C5.8,34.8,14.8,44,26,44.1C37.2,44.2,46.4,35.2,46.5,24"/>
	<path style="clip-path:url(#SVGID_00000020368012507552692030000000123214095431059610_);fill:#00ABC4;" d="M18.3,43.9v1.7
		c0,0,0,3.2,3.2,3.2h9.4c0,0,3.2,0,3.2-3.2v-1.7c-2.5,1-5.1,1.5-7.9,1.5C23.4,45.5,20.7,44.9,18.3,43.9"/>
	<path style="clip-path:url(#SVGID_00000020368012507552692030000000123214095431059610_);fill:#00ABC4;" d="M38.7,29.6v-4.9
		c0,0,0-1.8-1.4-1.8h-7.2v8.5h7.2C37.3,31.4,38.7,31.4,38.7,29.6"/>
	<path style="clip-path:url(#SVGID_00000020368012507552692030000000123214095431059610_);fill:#00ABC4;" d="M29.3,22.9H15.2
		c0,0-1.5,0-1.5,1.8v4.9c0,0,0,1.8,1.5,1.8h14.1V22.9z"/>
	<path style="clip-path:url(#SVGID_00000020368012507552692030000000123214095431059610_);fill:#00ABC4;" d="M15.8,20.4
		c1.1,0,2.1-0.9,2.1-2.1c0-1.1-0.9-2.1-2.1-2.1s-2.1,0.9-2.1,2.1C13.7,19.5,14.6,20.4,15.8,20.4"/>
	<path style="clip-path:url(#SVGID_00000020368012507552692030000000123214095431059610_);fill:#00ABC4;" d="M26.2,20.4
		c1.1,0,2.1-0.9,2.1-2.1c0-1.1-0.9-2.1-2.1-2.1c-1.1,0-2.1,0.9-2.1,2.1C24.1,19.5,25.1,20.4,26.2,20.4"/>
	<path style="clip-path:url(#SVGID_00000020368012507552692030000000123214095431059610_);fill:#00ABC4;" d="M36.6,20.4
		c1.1,0,2.1-0.9,2.1-2.1c0-1.1-0.9-2.1-2.1-2.1s-2.1,0.9-2.1,2.1C34.6,19.5,35.5,20.4,36.6,20.4"/>
</g>
</svg>
