<?xml version="1.0" encoding="utf-8"?>
<!-- Generator: Adobe Illustrator 28.0.0, SVG Export Plug-In . SVG Version: 6.00 Build 0)  -->
<svg version="1.1" id="Ebene_1" xmlns="http://www.w3.org/2000/svg" xmlns:xlink="http://www.w3.org/1999/xlink" x="0px" y="0px"
	 viewBox="0 0 52.4 52.4" style="enable-background:new 0 0 52.4 52.4;" xml:space="preserve">
<style type="text/css">
	.st0{clip-path:url(#SVGID_00000181785963027298325440000012410085926665116350_);fill:#00ABC4;}
</style>
<g>
	<defs>
		<rect id="SVGID_1_" x="6.7" y="7.8" width="38.9" height="36.7"/>
	</defs>
	<path style="clip-path:url(#SVGID_00000038414624431336168630000007846044827454563224_);fill:#00ABC4;" d="M8.2,24.6L8.2,24.6
		c-0.8,0.1-1.4,0.8-1.4,1.6s0.6,1.4,1.4,1.5v0h19.5l-4.6,4.6L23,32.4c-0.5,0.6-0.5,1.4,0.1,2c0.6,0.5,1.4,0.6,2,0.1l0.1-0.1l7.4-7.3
		l0,0c0.2-0.2,0.3-0.5,0.3-0.8c0-0.3-0.1-0.6-0.3-0.8l0,0l0,0c0,0,0,0,0,0L25.1,18L25,17.9c-0.6-0.5-1.4-0.5-2,0.1
		c-0.6,0.5-0.6,1.4-0.1,2l0.1,0.1l4.6,4.5H8.2z M45.7,42.1V10.3c0-1.4-1.1-2.5-2.5-2.5H15.3c-1.4,0-2.5,1.1-2.5,2.5v8.4h3.8v-7.1
		h25.1v29.1H16.6v-7.7h-3.8v9c0,1.4,1.1,2.5,2.5,2.5h27.9C44.6,44.6,45.7,43.5,45.7,42.1"/>
</g>
</svg>
