<?xml version="1.0" encoding="utf-8"?>
<!-- Generator: Adobe Illustrator 28.0.0, SVG Export Plug-In . SVG Version: 6.00 Build 0)  -->
<svg version="1.1" id="Ebene_1" xmlns="http://www.w3.org/2000/svg" xmlns:xlink="http://www.w3.org/1999/xlink" x="0px" y="0px"
	 viewBox="0 0 52.4 52.4" style="enable-background:new 0 0 52.4 52.4;" xml:space="preserve">
<style type="text/css">
	.st0{clip-path:url(#SVGID_00000121241175725752433300000009138914382516830858_);fill:#00ABC4;}
</style>
<g>
	<defs>
		<rect id="SVGID_1_" x="6.3" y="1.9" width="39.7" height="48.5"/>
	</defs>
	<path style="clip-path:url(#SVGID_00000162326992935872667890000018166251595440022932_);fill:#00ABC4;" d="M15,28.3
		c0-0.8,0.7-1.5,1.6-1.5c0.9,0,1.6,0.7,1.6,1.5c0,0.8-0.7,1.5-1.6,1.5C15.7,29.9,15,29.2,15,28.3 M12.5,27.2v0.8v0.5v0.8
		c0,2.4,2.4,2.4,2.4,2.4h24.4c2.4,0,2.4-2.4,2.4-2.4v-0.8v-0.5v-0.8c0,0,0-2.4-2.4-2.4H14.9C14.9,24.8,12.5,24.8,12.5,27.2
		 M46.1,20.1c0-3.8-3.2-6.9-7.1-6.9c-0.4,0-0.8,0-1.2,0.1c0.3-0.8,0.4-1.7,0.4-2.6c0-4.8-3.8-8.7-8.6-8.7c-3.8,0-7,2.5-8.1,6.1
		c-0.4-0.1-0.9-0.1-1.3-0.1c-3.1,0-5.8,2.1-6.7,4.9c-4,0.3-7.1,3.4-7.1,7.1c0,2.8,1.7,5.2,4.2,6.4c0.5-2.7,3.5-2.8,3.5-2.8h25.3
		c2.2,0,3.1,1.4,3.4,2.4C44.8,24.7,46.1,22.6,46.1,20.1"/>
	<path style="clip-path:url(#SVGID_00000162326992935872667890000018166251595440022932_);fill:#00ABC4;" d="M26.6,33.3
		c0.6,0,1.2,0.5,1.2,1.2h0v11.8l3.7-3.7l0.1-0.1c0.5-0.4,1.2-0.4,1.6,0.1c0.4,0.4,0.5,1.2,0,1.6l-0.1,0.1l-5.9,6c0,0,0,0,0,0l0,0
		l0,0c-0.2,0.2-0.4,0.3-0.7,0.3c-0.3,0-0.5-0.1-0.7-0.3l0,0l-5.9-6l-0.1-0.1c-0.4-0.5-0.4-1.2,0.1-1.6c0.4-0.4,1.2-0.5,1.6,0
		l0.1,0.1l3.7,3.7V34.5h0C25.4,33.8,25.9,33.3,26.6,33.3"/>
</g>
</svg>
