<?xml version="1.0" encoding="utf-8"?>
<!-- Generator: Adobe Illustrator 28.0.0, SVG Export Plug-In . SVG Version: 6.00 Build 0)  -->
<svg version="1.1" id="Ebene_1" xmlns="http://www.w3.org/2000/svg" xmlns:xlink="http://www.w3.org/1999/xlink" x="0px" y="0px"
	 viewBox="0 0 52.4 52.4" style="enable-background:new 0 0 52.4 52.4;" xml:space="preserve">
<style type="text/css">
	.st0{clip-path:url(#SVGID_00000104686611023272840860000002058654706246056888_);fill:#00ABC4;}
</style>
<g>
	<defs>
		<rect id="SVGID_1_" x="2.6" y="8" width="45.4" height="33.8"/>
	</defs>
	<path style="clip-path:url(#SVGID_00000150802440175182887930000005592043591852855729_);fill:#00ABC4;" d="M36.4,19.5
		c0-2.9-2.3-5.2-5.2-5.2s-5.2,2.3-5.2,5.2s2.3,5.2,5.2,5.2S36.4,22.3,36.4,19.5 M40.7,28.7C39.9,28,39,27.3,38,26.8c0,0,0,0,0,0
		c-0.1,0-0.1-0.1-0.2-0.1c-0.2-0.1-0.3-0.2-0.5-0.2c-0.2-0.1-0.4-0.2-0.6-0.3c-0.2-0.1-0.4-0.2-0.6-0.2c-0.2-0.1-0.4-0.2-0.7-0.2
		c-0.1,0-0.3-0.1-0.4-0.1c-0.3-0.1-0.7-0.2-1.1-0.2c0,0-0.1,0-0.1,0c-0.3-0.1-0.7-0.1-1-0.1c-0.1,0-0.2,0-0.3,0
		c-0.4,0-0.8-0.1-1.2-0.1c0,0,0,0,0,0c0,0,0,0,0,0c-0.4,0-0.8,0-1.2,0.1c-0.1,0-0.2,0-0.3,0c-0.3,0-0.7,0.1-1,0.1c0,0-0.1,0-0.1,0
		c-0.4,0.1-0.7,0.2-1.1,0.2c-0.1,0-0.3,0.1-0.4,0.1c-0.2,0.1-0.4,0.1-0.7,0.2c-0.2,0.1-0.4,0.2-0.6,0.2c-0.2,0.1-0.4,0.2-0.6,0.3
		c-0.2,0.1-0.3,0.2-0.5,0.2c-0.1,0-0.1,0.1-0.2,0.1c0,0,0,0,0,0c-1,0.5-1.9,1.1-2.7,1.8v4h6.7H34h6.7V28.7z"/>
	<path style="clip-path:url(#SVGID_00000150802440175182887930000005592043591852855729_);fill:#00ABC4;" d="M48,24.9
		C48,15.6,40.5,8,31.1,8c-7.4,0-13.6,4.8-15.9,11.4h2.5c2.2-5.3,7.3-9,13.4-9c8,0,14.5,6.5,14.5,14.4s-6.5,14.5-14.5,14.5
		c-6.1,0-11.3-3.8-13.4-9.1h-2.5c2.2,6.7,8.5,11.6,16,11.6C40.5,41.8,48,34.2,48,24.9"/>
	<path style="clip-path:url(#SVGID_00000150802440175182887930000005592043591852855729_);fill:#00ABC4;" d="M2.6,24.9
		c0-0.6,0.5-1.1,1.1-1.1v0h10.7L11,20.4l-0.1-0.1c-0.4-0.4-0.4-1.1,0-1.5c0.4-0.4,1.1-0.4,1.5,0l0.1,0.1l5.4,5.4c0,0,0,0,0,0l0,0
		l0,0c0.1,0.2,0.2,0.4,0.2,0.6c0,0.2-0.1,0.5-0.2,0.6l0,0l-5.4,5.4L12.4,31c-0.4,0.4-1.1,0.4-1.5,0c-0.4-0.4-0.4-1.1,0-1.5l0.1-0.1
		l3.4-3.4H3.7v0C3.1,25.9,2.6,25.5,2.6,24.9"/>
	<path style="clip-path:url(#SVGID_00000150802440175182887930000005592043591852855729_);fill:#00ABC4;" d="M45.1,33"/>
</g>
</svg>
