<svg xmlns="http://www.w3.org/2000/svg" width="52.4" height="52.4" fill="currentColor" class="bi bi-lightning" viewBox="0 0 52.4 52.4">
  <path
   style="fill:#00abc4"
   d="m 15.2,27.9 v 5.6 1 0.3 h 20 V 34.6 33.5 21.2 c 0,-0.9 -0.9,-0.9 -0.9,-0.9 h -2.2 c -0.9,0 -0.9,0.9 -0.9,0.9 v 12.3 h -1.4 v -8.2 c 0,-0.9 -0.9,-0.9 -0.9,-0.9 h -2.2 c -0.9,0 -0.9,0.9 -0.9,0.9 v 8.2 h -1.4 v -3.2 c 0,-0.9 -0.9,-0.9 -0.9,-0.9 h -2.2 c -0.9,0 -0.9,0.9 -0.9,0.9 v 3.2 H 19 V 27.9 C 19,27 18.1,27 18.1,27 h -2.2 c -0.7,0.1 -0.7,0.9 -0.7,0.9 m 20,-12.2 c 0,-1.1 -0.9,-2 -2,-2 -1.1,0 -2,0.9 -2,2 0,0.3 0.1,0.6 0.2,0.8 l -2.3,1.7 c -0.3,-0.3 -0.8,-0.4 -1.2,-0.4 -1.1,0 -2,0.9 -2,2 0,0.4 0.1,0.7 0.3,1 l -2.5,2.5 C 23.4,23.1 23,23 22.6,23 21.9,23 21.3,23.3 21,23.8 l -1.6,-1 c 0,-0.1 0,-0.3 0,-0.4 0,-1.1 -0.9,-2 -2,-2 -1.1,0 -2,0.9 -2,2 0,1.1 0.9,2 2,2 0.6,0 1.2,-0.3 1.6,-0.8 l 1.6,1 c 0,0.1 0,0.2 0,0.3 0,1.1 0.9,2 2,2 1.1,0 2,-0.9 2,-2 0,-0.4 -0.1,-0.7 -0.3,-1.1 l 2.4,-2.5 c 0.3,0.2 0.7,0.3 1.1,0.3 1.1,0 2,-0.9 2,-2 0,-0.3 -0.1,-0.6 -0.2,-0.9 l 2.3,-1.6 c 0.4,0.3 0.8,0.5 1.3,0.5 1.1,0.2 2,-0.8 2,-1.9 M 25.1,40.6 C 16.4,40.6 9.4,33.5 9.4,24.8 9.4,16.1 16.4,9 25.1,9 c 8.7,0 15.7,7.1 15.7,15.8 0,8.8 -7,15.8 -15.7,15.8 m 20,2.1 -5.7,-6.3 C 42,33.2 43.5,29.2 43.5,24.8 43.5,14.6 35.2,6.3 25,6.3 14.8,6.3 6.6,14.6 6.6,24.8 c 0,10.2 8.3,18.5 18.5,18.5 3.8,0 7.4,-1.2 10.3,-3.2 l 5.8,6.4 c 1,1.1 2.8,1.1 3.8,0.1 1.1,-1.1 1.2,-2.8 0.1,-3.9"
   clip-path="url(#SVGID_00000150094708621969034020000003142031801585715350_-9)"
   transform="matrix(1.1197767,0,0,1.0835179,-3.1810942,-2.8588378)" />
</svg>
