<?xml version="1.0" encoding="utf-8"?>
<!-- Generator: Adobe Illustrator 28.0.0, SVG Export Plug-In . SVG Version: 6.00 Build 0)  -->
<svg version="1.1" id="Ebene_1" xmlns="http://www.w3.org/2000/svg" xmlns:xlink="http://www.w3.org/1999/xlink" x="0px" y="0px"
	 viewBox="0 0 52.4 52.4" style="enable-background:new 0 0 52.4 52.4;" xml:space="preserve">
<style type="text/css">
	.st0{clip-path:url(#SVGID_00000157282288996928486860000000595420598183600529_);fill:#FFFFFF;}
	.st1{clip-path:url(#SVGID_00000157282288996928486860000000595420598183600529_);fill:#00ABC4;}
</style>
<g>
	<defs>
		<rect id="SVGID_1_" x="0.6" y="0.6" width="51.2" height="51.2"/>
	</defs>
	<clipPath id="SVGID_00000150094708621969034020000003142031801585715350_">
		<use xlink:href="#SVGID_1_"  style="overflow:visible;"/>
	</clipPath>
	<path style="clip-path:url(#SVGID_00000150094708621969034020000003142031801585715350_);fill:#FFFFFF;" d="M8.7,0.6
		c-4.5,0-8.1,3.6-8.1,8.1v35c0,4.5,3.6,8.1,8.1,8.1h35c4.5,0,8.1-3.6,8.1-8.1v-35c0-4.5-3.6-8.1-8.1-8.1H8.7z"/>
	<path style="clip-path:url(#SVGID_00000150094708621969034020000003142031801585715350_);fill:#00ABC4;" d="M15.2,27.9v5.6v1v0.3
		h20v-0.2v-1.1V21.2c0-0.9-0.9-0.9-0.9-0.9h-2.2c-0.9,0-0.9,0.9-0.9,0.9v12.3h-1.4v-8.2c0-0.9-0.9-0.9-0.9-0.9h-2.2
		c-0.9,0-0.9,0.9-0.9,0.9v8.2h-1.4v-3.2c0-0.9-0.9-0.9-0.9-0.9h-2.2c-0.9,0-0.9,0.9-0.9,0.9v3.2h-1.4v-5.6c0-0.9-0.9-0.9-0.9-0.9
		h-2.2C15.2,27.1,15.2,27.9,15.2,27.9 M35.2,15.7c0-1.1-0.9-2-2-2c-1.1,0-2,0.9-2,2c0,0.3,0.1,0.6,0.2,0.8l-2.3,1.7
		c-0.3-0.3-0.8-0.4-1.2-0.4c-1.1,0-2,0.9-2,2c0,0.4,0.1,0.7,0.3,1l-2.5,2.5c-0.3-0.2-0.7-0.3-1.1-0.3c-0.7,0-1.3,0.3-1.6,0.8l-1.6-1
		c0-0.1,0-0.3,0-0.4c0-1.1-0.9-2-2-2c-1.1,0-2,0.9-2,2c0,1.1,0.9,2,2,2c0.6,0,1.2-0.3,1.6-0.8l1.6,1c0,0.1,0,0.2,0,0.3
		c0,1.1,0.9,2,2,2s2-0.9,2-2c0-0.4-0.1-0.7-0.3-1.1l2.4-2.5c0.3,0.2,0.7,0.3,1.1,0.3c1.1,0,2-0.9,2-2c0-0.3-0.1-0.6-0.2-0.9l2.3-1.6
		c0.4,0.3,0.8,0.5,1.3,0.5C34.3,17.8,35.2,16.8,35.2,15.7 M25.1,40.6c-8.7,0-15.7-7.1-15.7-15.8c0-8.7,7-15.8,15.7-15.8
		c8.7,0,15.7,7.1,15.7,15.8C40.8,33.6,33.8,40.6,25.1,40.6 M45.1,42.7l-5.7-6.3c2.6-3.2,4.1-7.2,4.1-11.6c0-10.2-8.3-18.5-18.5-18.5
		S6.6,14.6,6.6,24.8c0,10.2,8.3,18.5,18.5,18.5c3.8,0,7.4-1.2,10.3-3.2l5.8,6.4c1,1.1,2.8,1.1,3.8,0.1
		C46.1,45.5,46.2,43.8,45.1,42.7"/>
</g>
</svg>
