<?xml version="1.0" encoding="utf-8"?>
<!-- Generator: Adobe Illustrator 28.0.0, SVG Export Plug-In . SVG Version: 6.00 Build 0)  -->
<svg version="1.1" id="Ebene_1" xmlns="http://www.w3.org/2000/svg" xmlns:xlink="http://www.w3.org/1999/xlink" x="0px" y="0px"
	 viewBox="0 0 52.4 52.4" style="enable-background:new 0 0 52.4 52.4;" xml:space="preserve">
<style type="text/css">
	.st0{clip-path:url(#SVGID_00000087373461312163982740000012030923980866059445_);fill:#00ABC4;}
</style>
<g>
	<defs>
		<rect id="SVGID_1_" x="3.9" y="3.6" width="43.4" height="45.3"/>
	</defs>
	
	<path style="clip-path:url(#SVGID_00000066480690931774251110000008819023084315123339_);fill:#00ABC4;" d="M11.8,24.9v5.8v1V32
		h20.5v-0.2v-1.1V18c0-0.9-0.9-0.9-0.9-0.9h-2.3c-0.9,0-0.9,0.9-0.9,0.9v12.6h-1.4l0-8.4c0-0.9-0.9-0.9-0.9-0.9h-2.3
		c-0.9,0-0.9,0.9-0.9,0.9v8.4h-1.5v-3.3c0-0.9-0.9-0.9-0.9-0.9h-2.3c-0.9,0-0.9,0.9-0.9,0.9v3.3h-1.5v-5.8C15.9,24,15,24,15,24h-2.3
		C11.8,24,11.8,24.9,11.8,24.9 M32.4,12.4c0-1.2-0.9-2.1-2.1-2.1c-1.2,0-2.1,0.9-2.1,2.1c0,0.3,0.1,0.6,0.2,0.8l-2.3,1.7
		c-0.4-0.3-0.8-0.4-1.3-0.4c-1.2,0-2.1,0.9-2.1,2.1c0,0.4,0.1,0.7,0.3,1l-2.5,2.6c-0.3-0.2-0.7-0.3-1.1-0.3c-0.7,0-1.3,0.3-1.7,0.9
		l-1.6-1c0-0.1,0-0.3,0-0.4c0-1.2-0.9-2.1-2.1-2.1s-2.1,0.9-2.1,2.1c0,1.2,0.9,2.1,2.1,2.1c0.7,0,1.2-0.3,1.6-0.8l1.7,1
		c0,0.1,0,0.2,0,0.3c0,1.2,0.9,2.1,2.1,2.1c1.2,0,2.1-0.9,2.1-2.1c0-0.4-0.1-0.8-0.3-1.1l2.5-2.5c0.3,0.2,0.7,0.4,1.2,0.4
		c1.2,0,2.1-0.9,2.1-2.1c0-0.3-0.1-0.6-0.2-0.9L29,14c0.4,0.3,0.8,0.5,1.3,0.5C31.5,14.5,32.4,13.5,32.4,12.4 M37.3,28.9
		c-0.1,0.2-0.2,0.5-0.3,0.7c-0.1,0.2-0.2,0.4-0.3,0.6c-0.1,0.2-0.3,0.5-0.4,0.7c-0.1,0.2-0.2,0.3-0.3,0.4c-0.2,0.4-0.5,0.7-0.8,1
		c-0.1,0.1-0.2,0.2-0.3,0.4c-0.2,0.2-0.4,0.5-0.6,0.7c-0.1,0.1-0.2,0.2-0.3,0.3c-0.3,0.2-0.5,0.5-0.8,0.7c-0.1,0.1-0.2,0.1-0.2,0.2
		c-0.4,0.3-0.8,0.6-1.2,0.9c0,0-0.1,0.1-0.1,0.1c-0.4,0.2-0.7,0.5-1.1,0.7c-0.1,0-0.2,0.1-0.3,0.1c-0.4,0.2-0.8,0.4-1.2,0.6
		c-0.1,0-0.1,0-0.2,0.1c-0.9,0.4-1.9,0.7-2.8,0.9c-0.1,0-0.2,0-0.3,0.1c-0.4,0.1-0.8,0.1-1.2,0.2c-0.1,0-0.2,0-0.3,0
		c-0.5,0-1,0.1-1.5,0.1c-0.5,0-1,0-1.5-0.1c-0.1,0-0.2,0-0.3,0c-0.4,0-0.8-0.1-1.2-0.2c-0.1,0-0.2,0-0.3-0.1c-1-0.2-1.9-0.5-2.8-0.9
		c-0.1,0-0.1,0-0.2-0.1c-0.4-0.2-0.8-0.4-1.2-0.6c-0.1,0-0.2-0.1-0.3-0.1c-0.4-0.2-0.8-0.4-1.1-0.7c0,0-0.1,0-0.1-0.1
		c-0.4-0.3-0.8-0.6-1.2-0.9c-0.1-0.1-0.2-0.1-0.2-0.2c-0.3-0.2-0.5-0.5-0.8-0.7c-0.1-0.1-0.2-0.2-0.3-0.3c-0.2-0.2-0.4-0.5-0.6-0.7
		c-0.1-0.1-0.2-0.2-0.3-0.4c-0.3-0.3-0.5-0.7-0.8-1c-0.1-0.1-0.2-0.3-0.3-0.4c-0.2-0.2-0.3-0.5-0.4-0.7c-0.1-0.2-0.2-0.4-0.3-0.6
		c-0.1-0.2-0.2-0.5-0.3-0.7c-0.1-0.2-0.2-0.4-0.2-0.6c-0.8-1.9-1.2-3.9-1.2-6.1c0-2.2,0.4-4.2,1.2-6.1c0-0.1,0.1-0.2,0.2-0.3
		c0.1-0.3,0.3-0.6,0.5-0.9c0.1-0.1,0.1-0.3,0.2-0.4c0.2-0.3,0.4-0.6,0.6-0.9c0.1-0.1,0.1-0.2,0.2-0.3c0.3-0.4,0.5-0.8,0.8-1.1
		c0.1-0.1,0.1-0.1,0.2-0.2c0.2-0.3,0.5-0.6,0.8-0.9c0.1-0.1,0.2-0.2,0.3-0.3c0.3-0.3,0.6-0.6,0.9-0.8c0,0,0.1-0.1,0.1-0.1
		c0.4-0.3,0.8-0.6,1.2-0.9c0,0,0,0,0,0c0.4-0.3,0.8-0.5,1.2-0.7c0.1,0,0.1-0.1,0.2-0.1c0.4-0.2,0.8-0.4,1.2-0.6c0,0,0.1,0,0.1-0.1
		c0.9-0.4,1.9-0.7,2.9-0.9c0.1,0,0.2,0,0.3-0.1c0.4-0.1,0.8-0.1,1.2-0.2c0.1,0,0.2,0,0.3,0c0.5,0,1-0.1,1.5-0.1c0.5,0,1,0,1.5,0.1
		c0.1,0,0.2,0,0.3,0c0.4,0,0.8,0.1,1.2,0.2c0.1,0,0.2,0,0.3,0.1c1,0.2,1.9,0.5,2.9,0.9c0,0,0.1,0,0.1,0.1c0.4,0.2,0.8,0.4,1.2,0.6
		c0.1,0,0.1,0.1,0.2,0.1c0.4,0.2,0.8,0.5,1.2,0.7c0,0,0,0,0,0c0.4,0.3,0.8,0.6,1.2,0.9c0,0,0.1,0.1,0.1,0.1c0.3,0.3,0.6,0.5,0.9,0.8
		c0.1,0.1,0.2,0.2,0.3,0.3c0.3,0.3,0.5,0.6,0.8,0.9C35,12,35,12,35.1,12.1c0.3,0.4,0.6,0.7,0.8,1.1c0.1,0.1,0.1,0.2,0.2,0.3
		c0.2,0.3,0.4,0.6,0.6,0.9c0.1,0.1,0.1,0.3,0.2,0.4c0.2,0.3,0.3,0.6,0.5,0.9c0.1,0.1,0.1,0.2,0.2,0.3c0.8,1.9,1.2,4,1.2,6.1
		c0,2.1-0.4,4.2-1.2,6.1C37.4,28.5,37.3,28.7,37.3,28.9 M47.3,46.1c0-0.6-0.2-1.1-0.5-1.6v0l-0.1-0.1c-0.1-0.1-0.2-0.2-0.3-0.3
		l-2.3-2.3l0,0l-2.6-2.7l-3.4-3.5l0,0l-0.8-0.9c-0.1-0.1-0.2-0.2-0.3-0.3l0,0c2.8-3.3,4.4-7.5,4.4-12.1c0-6.7-3.5-12.6-8.8-15.9
		c-0.1-0.1-0.2-0.1-0.3-0.2c-0.3-0.2-0.6-0.4-1-0.6c-0.2-0.1-0.5-0.2-0.7-0.3c-0.3-0.1-0.6-0.3-0.9-0.4c-0.4-0.2-0.9-0.3-1.3-0.5
		c-0.2-0.1-0.3-0.1-0.5-0.1c-0.4-0.1-0.8-0.2-1.2-0.3c-0.2,0-0.3-0.1-0.5-0.1c-0.4-0.1-0.9-0.1-1.3-0.2c-0.1,0-0.3,0-0.4-0.1
		c-0.6-0.1-1.2-0.1-1.8-0.1c0,0,0,0,0,0c0,0,0,0,0,0c-0.6,0-1.2,0-1.8,0.1c-0.1,0-0.3,0-0.4,0.1c-0.4,0.1-0.9,0.1-1.3,0.2
		C19,3.9,18.8,4,18.6,4c-0.4,0.1-0.8,0.2-1.2,0.3c-0.2,0-0.3,0.1-0.5,0.1c-0.4,0.1-0.9,0.3-1.3,0.5c-0.3,0.1-0.6,0.3-0.9,0.4
		c-0.2,0.1-0.5,0.2-0.7,0.3c-0.3,0.2-0.7,0.4-1,0.6c-0.1,0.1-0.2,0.1-0.3,0.2c-5.3,3.3-8.8,9.2-8.8,15.9c0,6.7,3.5,12.5,8.8,15.9
		c0.1,0,0.2,0.1,0.2,0.1c0.3,0.2,0.7,0.4,1,0.6c0.2,0.1,0.4,0.2,0.6,0.3c0.4,0.2,0.7,0.3,1.1,0.5c0.4,0.2,0.8,0.3,1.2,0.4
		c0.2,0.1,0.3,0.1,0.5,0.2c0.4,0.1,0.8,0.2,1.2,0.3c0.2,0,0.3,0.1,0.5,0.1c0.4,0.1,0.9,0.1,1.3,0.2c0.1,0,0.3,0,0.4,0.1
		C21.5,41,22,41,22.6,41c0,0,0,0,0,0c0,0,0,0,0,0c0.6,0,1.2,0,1.8-0.1c0.1,0,0.3,0,0.4-0.1c0.4-0.1,0.9-0.1,1.3-0.2
		c0.2,0,0.3-0.1,0.5-0.1c0.4-0.1,0.8-0.2,1.2-0.3c0.2-0.1,0.4-0.1,0.5-0.2c0.4-0.1,0.8-0.3,1.2-0.4c0.4-0.2,0.8-0.3,1.1-0.5
		c0.2-0.1,0.4-0.2,0.6-0.3c0.4-0.2,0.7-0.4,1-0.6c0.1,0,0.2-0.1,0.2-0.1c0.1-0.1,0.2-0.1,0.2-0.2c0.1,0.2,0.2,0.4,0.4,0.6l0.9,0.9
		l6,6.2l2.3,2.4c0.5,0.5,1.3,0.9,2.1,0.9C46,48.9,47.3,47.7,47.3,46.1"/>
</g>
</svg>
