<?xml version="1.0" encoding="utf-8"?>
<!-- Generator: Adobe Illustrator 28.0.0, SVG Export Plug-In . SVG Version: 6.00 Build 0)  -->
<svg version="1.1" id="Ebene_1" xmlns="http://www.w3.org/2000/svg" xmlns:xlink="http://www.w3.org/1999/xlink" x="0px" y="0px"
	 viewBox="0 0 52.4 52.4" style="enable-background:new 0 0 52.4 52.4;" xml:space="preserve">
<style type="text/css">
	.st0{clip-path:url(#SVGID_00000016062402855807965200000001665156865920341923_);fill:#00ABC4;}
</style>
<g>
	<defs>
		<rect id="SVGID_1_" x="3.2" y="3" width="46" height="46.4"/>
	</defs>
	<path style="clip-path:url(#SVGID_00000027585516638366962060000008259215130973814658_);fill:#00ABC4;" d="M16.7,21.3
		c-0.1,0-0.3,0-0.4,0h0l0,0c0,0,0,0,0,0L12,23.4l-0.1,0c-0.3,0.2-0.4,0.6-0.3,0.9c0.2,0.3,0.5,0.5,0.9,0.3l0.1,0l2.6-1.3
		c-0.2,0.9-0.4,1.8-0.4,2.8c0,4.1,2.2,7.7,5.4,9.7c0,0,0.1,0.1,0.1,0.1c0.2,0.1,0.4,0.3,0.6,0.4c0.1,0.1,0.3,0.1,0.4,0.2
		c0.2,0.1,0.5,0.2,0.7,0.3c0.2,0.1,0.5,0.2,0.7,0.3c0.1,0,0.2,0.1,0.3,0.1c0.2,0.1,0.5,0.1,0.7,0.2c0.1,0,0.2,0,0.3,0.1
		c0.3,0,0.5,0.1,0.8,0.1c0.1,0,0.2,0,0.3,0c0.3,0,0.5,0,0.8,0c0-0.5-0.1-1.1-0.2-1.7c-0.2,0-0.3,0-0.5,0c-0.1,0-0.1,0-0.2,0
		c-0.2,0-0.5-0.1-0.7-0.1c-0.1,0-0.1,0-0.2,0c-0.6-0.1-1.2-0.3-1.7-0.5c0,0-0.1,0-0.1,0c-0.2-0.1-0.5-0.2-0.7-0.3
		c-0.1,0-0.1-0.1-0.2-0.1c-0.2-0.1-0.5-0.3-0.7-0.4c0,0,0,0-0.1,0c-0.2-0.2-0.5-0.3-0.7-0.5c0,0-0.1-0.1-0.1-0.1
		c-0.2-0.1-0.3-0.3-0.5-0.4c-0.1-0.1-0.1-0.1-0.2-0.2c-0.1-0.1-0.3-0.3-0.4-0.4c-0.1-0.1-0.1-0.1-0.2-0.2c-0.2-0.2-0.3-0.4-0.5-0.6
		c-0.1-0.1-0.1-0.2-0.2-0.3c-0.1-0.1-0.2-0.3-0.3-0.4c-0.1-0.1-0.1-0.2-0.2-0.3c-0.1-0.1-0.1-0.3-0.2-0.4c-0.1-0.1-0.1-0.2-0.2-0.3
		c-0.5-1.1-0.7-2.4-0.7-3.7c0-0.8,0.1-1.5,0.3-2.3l1.3,2.6l0,0.1c0.2,0.3,0.6,0.4,0.9,0.3c0.3-0.2,0.5-0.5,0.3-0.9l0-0.1l-2.1-4.3
		l0,0C17,21.4,16.9,21.3,16.7,21.3 M35.7,20.3L35.7,20.3L35.7,20.3C35.7,20.3,35.7,20.3,35.7,20.3l-0.1-4.8l0-0.1
		c0-0.4-0.3-0.6-0.7-0.6c-0.4,0-0.7,0.3-0.7,0.6l0,0.1l0.1,2.7c-0.6-0.6-1.3-1.2-2-1.6c-0.1,0-0.1-0.1-0.2-0.1
		c-0.2-0.1-0.4-0.2-0.6-0.3c-0.1-0.1-0.3-0.1-0.4-0.2c-0.2-0.1-0.4-0.2-0.6-0.2c-0.3-0.1-0.5-0.2-0.8-0.3c-0.1,0-0.2-0.1-0.3-0.1
		c-0.2-0.1-0.5-0.1-0.7-0.2c-0.1,0-0.2,0-0.3-0.1c-0.3-0.1-0.5-0.1-0.8-0.1c-0.1,0-0.2,0-0.3,0c-0.4,0-0.7-0.1-1.1-0.1c0,0,0,0,0,0
		c0,0,0,0,0,0c-0.4,0-0.7,0-1.1,0.1c-0.1,0-0.2,0-0.3,0c-0.3,0-0.5,0.1-0.8,0.1c-0.1,0-0.2,0-0.3,0.1c-0.2,0.1-0.5,0.1-0.7,0.2
		c-0.1,0-0.2,0.1-0.3,0.1c-0.3,0.1-0.5,0.2-0.8,0.3c-0.2,0.1-0.4,0.2-0.6,0.2c-0.1,0.1-0.3,0.1-0.4,0.2c-0.2,0.1-0.4,0.2-0.6,0.3
		c-0.1,0-0.1,0.1-0.2,0.1c-1.4,0.9-2.7,2.1-3.6,3.6l1.5,0.6c0.2-0.2,0.3-0.4,0.5-0.6c0,0,0.1-0.1,0.1-0.1c0.2-0.2,0.3-0.4,0.5-0.5
		c0.1-0.1,0.1-0.1,0.2-0.2c0.2-0.2,0.4-0.3,0.5-0.5c0,0,0.1-0.1,0.1-0.1c0.2-0.2,0.5-0.4,0.7-0.5c0,0,0,0,0,0
		c0.2-0.2,0.5-0.3,0.8-0.5c0,0,0.1,0,0.1-0.1c0.2-0.1,0.5-0.2,0.7-0.4c0,0,0.1,0,0.1,0c0.6-0.2,1.1-0.4,1.7-0.5c0.1,0,0.1,0,0.2,0
		c0.2,0,0.5-0.1,0.7-0.1c0.1,0,0.1,0,0.2,0c0.3,0,0.6,0,0.9,0c0.3,0,0.6,0,0.9,0c0.1,0,0.1,0,0.2,0c0.3,0,0.5,0.1,0.7,0.1
		c0.1,0,0.1,0,0.2,0c0.6,0.1,1.2,0.3,1.7,0.5c0,0,0.1,0,0.1,0c0.3,0.1,0.5,0.2,0.7,0.4c0,0,0.1,0,0.1,0.1c0.3,0.1,0.5,0.3,0.8,0.5
		c0,0,0,0,0,0c0.3,0.2,0.5,0.4,0.7,0.5c0,0,0.1,0.1,0.1,0.1c0.2,0.2,0.4,0.3,0.6,0.5c0.1,0.1,0.1,0.1,0.2,0.2
		c0.1,0.1,0.1,0.1,0.2,0.2l-3.1,0.1l-0.1,0c-0.4,0-0.6,0.3-0.6,0.7c0,0.4,0.3,0.7,0.6,0.7l0.1,0l4.8-0.1v0c0.1,0,0.3-0.1,0.4-0.2
		C35.6,20.6,35.7,20.4,35.7,20.3 M37.6,26.2c0-1.7-0.4-3.3-1-4.7c-0.5,0.3-1,0.6-1.4,0.8c0,0,0,0.1,0,0.1c0.5,1.2,0.7,2.4,0.7,3.7
		c0,1.3-0.3,2.6-0.7,3.7c0,0.1-0.1,0.2-0.2,0.3c-0.1,0.1-0.1,0.3-0.2,0.4c-0.1,0.1-0.1,0.2-0.2,0.3c-0.1,0.1-0.2,0.3-0.3,0.4
		c-0.1,0.1-0.1,0.2-0.2,0.3c-0.1,0.2-0.3,0.4-0.5,0.6c-0.1,0.1-0.1,0.1-0.2,0.2c-0.1,0.1-0.3,0.3-0.4,0.4c-0.1,0.1-0.1,0.1-0.2,0.2
		c-0.2,0.2-0.3,0.3-0.5,0.4c0,0-0.1,0.1-0.1,0.1c-0.2,0.2-0.5,0.4-0.7,0.5c0,0,0,0-0.1,0c-0.2,0.1-0.4,0.3-0.7,0.4
		c-0.1,0-0.1,0.1-0.2,0.1c-0.2,0.1-0.5,0.2-0.7,0.3c0,0-0.1,0-0.1,0c-0.4,0.2-0.8,0.3-1.2,0.4l1.3-3l0-0.1c0.1-0.3,0-0.7-0.4-0.9
		c-0.3-0.1-0.7,0-0.9,0.3l0,0.1l-1.9,4.4l0,0c-0.1,0.1-0.1,0.3,0,0.4c0.1,0.1,0.2,0.2,0.3,0.3l0,0c0,0,0,0,0,0l4.4,1.9l0.1,0
		c0.3,0.1,0.7,0,0.9-0.4s0-0.7-0.3-0.9l-0.1,0l-2.1-0.9c0.1,0,0.2-0.1,0.3-0.1c0.2-0.1,0.5-0.2,0.7-0.3c0.1-0.1,0.3-0.1,0.4-0.2
		c0.2-0.1,0.4-0.2,0.6-0.4c0,0,0.1-0.1,0.1-0.1C35.5,33.9,37.6,30.3,37.6,26.2 M42.1,26.2c0,8.5-7.1,15.4-15.9,15.4
		c-8.8,0-15.9-6.9-15.9-15.4c0-8.5,7.1-15.4,15.9-15.4C35,10.8,42.1,17.7,42.1,26.2 M44.8,24.4l4.4-4.1l-2.7-6.8l-5.9,0.6l-2.4-2.3
		l0.3-6.2L31.9,3l-4.1,4.6l-1.7,0l-1.7,0L20.5,3l-6.6,2.8l0.3,6.2l-2.4,2.3l-5.9-0.6l-2.7,6.8l4.4,4.1V28l-4.4,3.9l2.7,6.5l5.9-0.1
		l2.4,2.4l-0.3,6.2l6.8,2.6l3.9-4.4h1.7h1.7l3.9,4.4l6.8-2.6l-0.3-6.2l2.4-2.4l5.9,0.2l2.7-6.5L44.8,28V24.4z"/>
</g>
</svg>
