<?xml version="1.0" encoding="utf-8"?>
<!-- Generator: Adobe Illustrator 28.0.0, SVG Export Plug-In . SVG Version: 6.00 Build 0)  -->
<svg version="1.1" id="Ebene_1" xmlns="http://www.w3.org/2000/svg" xmlns:xlink="http://www.w3.org/1999/xlink" x="0px" y="0px"
	 viewBox="0 0 52.4 52.4" style="enable-background:new 0 0 52.4 52.4;" xml:space="preserve">
<style type="text/css">
	.st0{clip-path:url(#SVGID_00000027586204483407899650000010377108771138387623_);fill:#00ABC4;}
</style>
<g>
	<defs>
		<rect id="SVGID_1_" x="2.7" y="6" width="46.7" height="40.4"/>
	</defs>
	<path style="clip-path:url(#SVGID_00000071518685702418203980000014386106727137874334_);fill:#00ABC4;" d="M36.5,19.9
		c0.1,0,0.1,0.1,0.2,0.1L33,24.6l-0.7-3.2l-3,4.2l-0.1,0l-4.6-5.9c0.2-0.2,0.5-0.3,0.7-0.4c0,0,0.1,0,0.1-0.1
		c0.3-0.1,0.5-0.3,0.8-0.4c0,0,0.1,0,0.1,0c0.6-0.3,1.2-0.5,1.9-0.6c0.1,0,0.1,0,0.2,0c0.3-0.1,0.5-0.1,0.8-0.1c0.1,0,0.1,0,0.2,0
		c0.3,0,0.7-0.1,1-0.1c0.3,0,0.7,0,1,0.1c0.1,0,0.1,0,0.2,0c0.3,0,0.5,0.1,0.8,0.1c0.1,0,0.1,0,0.2,0c0.7,0.1,1.3,0.3,1.9,0.6
		c0,0,0.1,0,0.1,0c0.3,0.1,0.5,0.2,0.8,0.4c0,0,0.1,0,0.1,0.1C35.9,19.5,36.2,19.7,36.5,19.9C36.5,19.9,36.5,19.9,36.5,19.9
		 M21.7,22.7c0.2-0.3,0.4-0.5,0.6-0.7c0,0,0.1-0.1,0.1-0.1c0.1-0.2,0.3-0.3,0.4-0.5l3.6,4.4l-2.6,0.1l3.4,4.3l-2.2,5l4.9-1.7
		l4.3,3.3l-0.3-5.4l4.6-2.8l-3.8-1.6l3.9-5.3c0.1,0.1,0.1,0.1,0.2,0.2c0,0,0.1,0.1,0.1,0.1c0.2,0.2,0.4,0.5,0.6,0.7
		c0,0.1,0.1,0.1,0.1,0.2c0.1,0.2,0.3,0.4,0.4,0.6c0.1,0.1,0.1,0.2,0.1,0.3c0.1,0.2,0.2,0.4,0.3,0.6c0,0.1,0.1,0.2,0.1,0.2
		c0.5,1.3,0.8,2.6,0.8,4.1c0,1.4-0.3,2.8-0.8,4c-0.1,0.1-0.1,0.2-0.2,0.4c-0.1,0.2-0.1,0.3-0.2,0.5c-0.1,0.1-0.1,0.2-0.2,0.4
		c-0.1,0.2-0.2,0.3-0.3,0.5c-0.1,0.1-0.1,0.2-0.2,0.3c-0.2,0.2-0.3,0.5-0.5,0.7c-0.1,0.1-0.1,0.2-0.2,0.2c-0.1,0.2-0.3,0.3-0.4,0.5
		c-0.1,0.1-0.2,0.2-0.2,0.2c-0.2,0.2-0.3,0.3-0.5,0.5c-0.1,0-0.1,0.1-0.2,0.1c-0.2,0.2-0.5,0.4-0.8,0.6c0,0-0.1,0-0.1,0.1
		c-0.2,0.2-0.5,0.3-0.7,0.4c-0.1,0-0.1,0.1-0.2,0.1c-0.3,0.1-0.5,0.3-0.8,0.4c0,0-0.1,0-0.1,0c-0.6,0.3-1.2,0.5-1.9,0.6
		c-0.1,0-0.1,0-0.2,0c-0.3,0.1-0.5,0.1-0.8,0.1c-0.1,0-0.1,0-0.2,0c-0.3,0-0.7,0.1-1,0.1c-0.3,0-0.7,0-1-0.1c-0.1,0-0.1,0-0.2,0
		c-0.3,0-0.5-0.1-0.8-0.1c-0.1,0-0.1,0-0.2,0c-0.7-0.1-1.3-0.3-1.9-0.6c0,0-0.1,0-0.1,0c-0.3-0.1-0.5-0.2-0.8-0.4
		c-0.1,0-0.1-0.1-0.2-0.1c-0.3-0.1-0.5-0.3-0.7-0.5c0,0-0.1,0-0.1-0.1c-0.3-0.2-0.5-0.4-0.8-0.6c-0.1,0-0.1-0.1-0.2-0.1
		c-0.2-0.2-0.4-0.3-0.5-0.5c-0.1-0.1-0.2-0.2-0.2-0.2c-0.1-0.1-0.3-0.3-0.4-0.5c-0.1-0.1-0.1-0.2-0.2-0.2c-0.2-0.2-0.4-0.5-0.5-0.7
		c-0.1-0.1-0.1-0.2-0.2-0.3c-0.1-0.2-0.2-0.3-0.3-0.5c-0.1-0.1-0.1-0.2-0.2-0.4c-0.1-0.2-0.2-0.3-0.2-0.5c-0.1-0.1-0.1-0.2-0.2-0.4
		c-0.5-1.2-0.8-2.6-0.8-4c0-1.4,0.3-2.8,0.8-4.1c0-0.1,0.1-0.2,0.1-0.2c0.1-0.2,0.2-0.4,0.3-0.6c0-0.1,0.1-0.2,0.1-0.3
		c0.1-0.2,0.2-0.4,0.4-0.6C21.6,22.8,21.6,22.8,21.7,22.7 M49.4,9.1C49.4,7.4,48,6,46.3,6c-1.7,0-3.1,1.4-3.1,3.1
		c0,0.7,0.2,1.4,0.6,1.9L38,18.8c-0.3-0.2-0.6-0.4-0.9-0.6c-0.1,0-0.1-0.1-0.2-0.1c-0.2-0.1-0.4-0.3-0.6-0.4
		c-0.2-0.1-0.3-0.2-0.5-0.2c-0.2-0.1-0.4-0.2-0.6-0.3c-0.3-0.1-0.6-0.2-0.9-0.3c-0.1,0-0.2-0.1-0.3-0.1c-0.3-0.1-0.5-0.1-0.8-0.2
		c-0.1,0-0.2,0-0.3-0.1c-0.3-0.1-0.6-0.1-0.9-0.1c-0.1,0-0.2,0-0.3,0c-0.4,0-0.8-0.1-1.2-0.1c0,0,0,0,0,0c0,0,0,0,0,0
		c-0.4,0-0.8,0-1.2,0.1c-0.1,0-0.2,0-0.3,0c-0.3,0-0.6,0.1-0.9,0.1c-0.1,0-0.2,0-0.3,0.1c-0.3,0.1-0.5,0.1-0.8,0.2
		c-0.1,0-0.2,0.1-0.3,0.1c-0.3,0.1-0.6,0.2-0.9,0.3c-0.2,0.1-0.4,0.2-0.6,0.3c-0.2,0.1-0.3,0.1-0.5,0.2c-0.2,0.1-0.4,0.2-0.6,0.4
		c-0.1,0-0.1,0.1-0.2,0.1c-0.3,0.2-0.6,0.4-0.8,0.6l-3.7-4.6c0.5-0.5,0.7-1.2,0.7-2c0-1.7-1.4-3.1-3.1-3.1c-1.7,0-3.1,1.4-3.1,3.1
		c0,1.1,0.6,2.1,1.5,2.6L6.6,33.3c-0.2-0.1-0.5-0.1-0.7-0.1c-1.7,0-3.1,1.4-3.1,3.1c0,1.7,1.4,3.1,3.1,3.1c1.7,0,3.1-1.4,3.1-3.1
		c0-1-0.5-1.9-1.2-2.5l8.9-18.6c0.1,0,0.3,0,0.4,0c0.5,0,1-0.1,1.4-0.3l3.7,4.6c-2.5,2.3-4.1,5.5-4.1,9.2c0,4.5,2.3,8.4,5.9,10.6
		c0.1,0,0.1,0.1,0.2,0.1c0.2,0.1,0.5,0.3,0.7,0.4c0.1,0.1,0.3,0.1,0.4,0.2c0.2,0.1,0.5,0.2,0.7,0.3c0.3,0.1,0.5,0.2,0.8,0.3
		c0.1,0,0.2,0.1,0.3,0.1c0.3,0.1,0.5,0.1,0.8,0.2c0.1,0,0.2,0.1,0.3,0.1c0.3,0.1,0.6,0.1,0.9,0.1c0.1,0,0.2,0,0.3,0
		c0.4,0,0.8,0.1,1.2,0.1c0,0,0,0,0,0c0,0,0,0,0,0c0.4,0,0.8,0,1.2-0.1c0.1,0,0.2,0,0.3,0c0.3,0,0.6-0.1,0.9-0.1c0.1,0,0.2,0,0.3-0.1
		c0.3-0.1,0.5-0.1,0.8-0.2c0.1,0,0.2-0.1,0.3-0.1c0.3-0.1,0.5-0.2,0.8-0.3c0.3-0.1,0.5-0.2,0.7-0.3c0.1-0.1,0.3-0.1,0.4-0.2
		c0.2-0.1,0.5-0.3,0.7-0.4c0.1,0,0.1-0.1,0.2-0.1c0.1,0,0.1-0.1,0.2-0.1c0.1,0.1,0.2,0.3,0.3,0.4l0.6,0.6l4,4.1l1.5,1.6
		c0.3,0.4,0.8,0.6,1.4,0.6c1.1,0,1.9-0.8,1.9-1.8c0-0.4-0.1-0.7-0.3-1v0l-0.1-0.1c-0.1-0.1-0.1-0.1-0.2-0.2l-1.5-1.6h0L43,39.9
		l-2.3-2.3l0,0L40.2,37c-0.1-0.1-0.1-0.1-0.2-0.2l0,0c1.8-2.2,2.9-5,2.9-8c0-3.6-1.6-6.8-4-9.1l5.9-7.8c0.4,0.2,0.9,0.4,1.5,0.4
		C48,12.2,49.4,10.8,49.4,9.1"/>
</g>
</svg>
