<?xml version="1.0" encoding="utf-8"?>
<!-- Generator: Adobe Illustrator 28.0.0, SVG Export Plug-In . SVG Version: 6.00 Build 0)  -->
<svg version="1.1" id="Ebene_1" xmlns="http://www.w3.org/2000/svg" xmlns:xlink="http://www.w3.org/1999/xlink" x="0px" y="0px"
	 viewBox="0 0 52.4 52.4" style="enable-background:new 0 0 52.4 52.4;" xml:space="preserve">
<style type="text/css">
	.st0{clip-path:url(#SVGID_00000013150607083448275860000017507200866430916226_);fill:#00ABC4;}
</style>
<g>
	<defs>
		<rect id="SVGID_1_" x="8" y="8.3" width="36.4" height="35.9"/>
	</defs>
	<path style="clip-path:url(#SVGID_00000056426174293356535940000011667997600746335661_);fill:#00ABC4;" d="M15.9,44.2
		c4.3,0,7.9-3.4,7.9-7.5c0-4.1-3.5-7.5-7.9-7.5S8,32.5,8,36.7C8,40.8,11.5,44.2,15.9,44.2"/>
	<path style="clip-path:url(#SVGID_00000056426174293356535940000011667997600746335661_);fill:#00ABC4;" d="M44.4,16.2
		c0-4.4-3.7-8-8.4-8c-2.4,0-4.5,1-6.1,2.5l-17.8,17l0,0c1.5-1.2,3.5-1.9,5.6-1.9c4.9,0,8.9,3.8,8.9,8.5c0,1.7-0.5,3.2-1.4,4.6l0,0
		l16.2-16.8c0.3-0.3,0.6-0.6,0.9-0.9l0.4-0.4v0C43.9,19.5,44.4,17.9,44.4,16.2"/>
</g>
</svg>
