<?xml version="1.0" encoding="utf-8"?>
<!-- Generator: Adobe Illustrator 28.0.0, SVG Export Plug-In . SVG Version: 6.00 Build 0)  -->
<svg version="1.1" id="Ebene_1" xmlns="http://www.w3.org/2000/svg" xmlns:xlink="http://www.w3.org/1999/xlink" x="0px" y="0px"
	 viewBox="0 0 52.4 52.4" style="enable-background:new 0 0 52.4 52.4;" xml:space="preserve">
<style type="text/css">
	.st0{clip-path:url(#SVGID_00000100368983881542568460000009433680569323292036_);fill:#00ABC4;}
</style>
<g>
	<defs>
		<rect id="SVGID_1_" x="6.4" y="5.9" width="39.5" height="40.5"/>
	</defs>
	<path style="clip-path:url(#SVGID_00000094598654030879149050000014021587844490991497_);fill:#00ABC4;" d="M33.8,26.3
		c0-0.2-0.2-0.3-0.5-0.6C31.3,24,23,17.5,23,17.5s-0.3-0.3-0.6-0.1c-0.2,0.2-0.1,0.5-0.1,0.5v17c0,0,0,0.3,0.2,0.4
		c0.2,0.1,0.5-0.1,0.5-0.1l10.5-8.4C33.5,26.9,33.9,26.7,33.8,26.3 M40.5,26.2c0,8.2-6.4,14.9-14.3,14.9s-14.3-6.7-14.3-14.9
		c0-8.2,6.4-14.9,14.3-14.9S40.5,18,40.5,26.2 M46,26.2C46,15,37.1,5.9,26.2,5.9S6.4,15,6.4,26.2s8.9,20.3,19.8,20.3
		S46,37.4,46,26.2"/>
</g>
</svg>
