<?xml version="1.0" encoding="utf-8"?>
<!-- Generator: Adobe Illustrator 28.0.0, SVG Export Plug-In . SVG Version: 6.00 Build 0)  -->
<svg version="1.1" id="Ebene_1" xmlns="http://www.w3.org/2000/svg" xmlns:xlink="http://www.w3.org/1999/xlink" x="0px" y="0px"
	 viewBox="0 0 52.4 52.4" style="enable-background:new 0 0 52.4 52.4;" xml:space="preserve">
<style type="text/css">
	.st0{clip-path:url(#SVGID_00000030460348698219594560000014905689969867251626_);fill:#00ABC4;}
</style>
<g>
	<defs>
		<rect id="SVGID_1_" x="3.5" y="8.1" width="45.8" height="35.6"/>
	</defs>
	<path d="M33.7,26.3
		c0,6.6-5.4,12-12,12c-6.7,0-12-5.4-12-12s5.4-12,12-12C28.3,14.3,33.7,19.6,33.7,26.3 M49.3,19V8.1H20.4v0.1
		C11,8.7,3.5,16.5,3.5,26c0,9.8,8,17.8,17.9,17.8c9.9,0,17.9-8,17.9-17.8c0-2.5-0.5-4.8-1.4-7H49.3z"  fill="param(fill)" fill-opacity="param(fill-opacity)" stroke="param(outline)" stroke-opacity="param(outline-opacity)" stroke-width="param(outline-width)"/>
</g>
</svg>
