<?xml version="1.0" encoding="utf-8"?>
<!-- Generator: Adobe Illustrator 28.0.0, SVG Export Plug-In . SVG Version: 6.00 Build 0)  -->
<svg version="1.1" id="Ebene_1" xmlns="http://www.w3.org/2000/svg" xmlns:xlink="http://www.w3.org/1999/xlink" x="0px" y="0px"
	 viewBox="0 0 52.4 52.4" style="enable-background:new 0 0 52.4 52.4;" xml:space="preserve">
<style type="text/css">
	.st0{clip-path:url(#SVGID_00000149363442993448208490000001977792908268819640_);fill:#00ABC4;}
</style>
<g>
	<defs>
		<rect id="SVGID_1_" x="6.2" y="2.4" width="39.9" height="47.6"/>
	</defs>
	<path style="clip-path:url(#SVGID_00000072248926916144961390000017002811770600311692_);fill:#00ABC4;" d="M40.7,12.3
		c-3.9-4-9.1-6-14.4-5.9l0.1-4L17.6,9l8.4,6.9l0.1-3.9c3.9-0.2,7.9,1.2,10.8,4.2c5.5,5.7,5.2,14.9-0.7,20.6
		c-0.6,0.6-1.2,1.1-1.9,1.5l4.1,3.4c0.5-0.4,1-0.8,1.4-1.2C47.9,32.8,48.3,20.1,40.7,12.3"/>
	<path style="clip-path:url(#SVGID_00000072248926916144961390000017002811770600311692_);fill:#00ABC4;" d="M11.7,40.1
		c3.9,4,9.1,6,14.4,5.9l-0.1,4l8.8-6.6l-8.4-6.9l-0.1,3.9c-3.9,0.2-7.9-1.2-10.8-4.2c-5.5-5.7-5.2-14.9,0.7-20.6
		c0.6-0.6,1.2-1.1,1.9-1.5L14,10.5c-0.5,0.4-1,0.8-1.4,1.2C4.5,19.6,4.1,32.3,11.7,40.1"/>
</g>
</svg>
