<?xml version="1.0" encoding="utf-8"?>
<!-- Generator: Adobe Illustrator 28.0.0, SVG Export Plug-In . SVG Version: 6.00 Build 0)  -->
<svg version="1.1" id="Ebene_1" xmlns="http://www.w3.org/2000/svg" xmlns:xlink="http://www.w3.org/1999/xlink" x="0px" y="0px"
	 viewBox="0 0 52.4 52.4" style="enable-background:new 0 0 52.4 52.4;" xml:space="preserve">
<style type="text/css">
	.st0{clip-path:url(#SVGID_00000075869828349264621000000014030976472865161613_);fill:#00ABC4;}
</style>
<g>
	<defs>
		<rect id="SVGID_1_" x="9.2" y="10.1" width="34.1" height="32.3"/>
	</defs>
	<path d="M20.2,40v-30h-5.5h-3.1
		c-1.2,0-2.7,0.2-2.3,2.6l0.1,0.6C10.4,19.7,13.3,34.3,20.2,40 M26.2,42.4c1.2,0,2.3-0.3,3.3-0.7V10.1H23v31.7
		C24,42.1,25.1,42.4,26.2,42.4 M40.8,10.1h-0.7h-2.4h-5.3v29.9c6.5-5.5,9.4-19.1,10.6-25.9l0,0l0.2-1.4C43.6,10.2,42,10.1,40.8,10.1" fill="param(fill)" fill-opacity="param(fill-opacity)" stroke="param(outline)" stroke-opacity="param(outline-opacity)" stroke-width="param(outline-width)"/>
</g>
</svg>
