<?xml version="1.0" encoding="utf-8"?>
<!-- Generator: Adobe Illustrator 28.0.0, SVG Export Plug-In . SVG Version: 6.00 Build 0)  -->
<svg version="1.1" id="Ebene_1" xmlns="http://www.w3.org/2000/svg" xmlns:xlink="http://www.w3.org/1999/xlink" x="0px" y="0px"
	 viewBox="0 0 52.4 52.4" style="enable-background:new 0 0 52.4 52.4;" xml:space="preserve">
<style type="text/css">
	.st0{clip-path:url(#SVGID_00000175321537855593732890000000690440590264328596_);fill:#00ABC4;}
</style>
<g>
	<defs>
		<rect id="SVGID_1_" x="4.9" y="5.8" width="39.5" height="40.5"/>
	</defs>
	<path style="clip-path:url(#SVGID_00000176041215060082541040000003798745090506657204_);fill:#00ABC4;" d="M30.6,29.5v-6.9
		c0-1.4-1.1-2.5-2.5-2.5h-6.9c-1.4,0-2.5,1.1-2.5,2.5v6.9c0,1.4,1.1,2.5,2.5,2.5h6.9C29.5,32,30.6,30.9,30.6,29.5 M38.9,26.1
		c0,8.2-6.4,14.9-14.3,14.9s-14.3-6.7-14.3-14.9c0-8.2,6.4-14.9,14.3-14.9S38.9,17.8,38.9,26.1 M44.4,26.1
		c0-11.2-8.9-20.3-19.8-20.3c-10.9,0-19.8,9.1-19.8,20.3s8.9,20.3,19.8,20.3C35.5,46.3,44.4,37.3,44.4,26.1"/>
</g>
</svg>
