<?xml version="1.0" encoding="utf-8"?>
<!-- Generator: Adobe Illustrator 28.0.0, SVG Export Plug-In . SVG Version: 6.00 Build 0)  -->
<svg version="1.1" id="Ebene_1" xmlns="http://www.w3.org/2000/svg" xmlns:xlink="http://www.w3.org/1999/xlink" x="0px" y="0px"
	 viewBox="0 0 52.44 52.44" style="enable-background:new 0 0 52.44 52.44;" xml:space="preserve">
<g>
	<g>
		<defs>
			<rect id="SVGID_1_" x="8.47" y="3.84" width="35.51" height="44.75"/>
		</defs>
		<path style="clip-path:url(#SVGID_00000055709201854818320440000017928628478932624279_);fill:#002F87;" d="M43.97,40.08H8.47
			v1.26c0,0,0,7.24,7.24,7.24h21.01c0,0,7.24,0,7.24-7.24v-1.26H43.97z M43.97,21.82H8.47v15.71h35.49V22.51
			C43.97,22.51,43.97,22.24,43.97,21.82 M43.97,16.3v-0.47c0,0,0.25-3.58-4.49-5.83c-2.49-1.16-4.67-1.85-6.86-2.26v-1.3
			c0-2.61-2.61-2.61-2.61-2.61h-7.56c-2.61,0-2.61,2.61-2.61,2.61v1.29c-2.19,0.4-4.36,1.1-6.88,2.27
			c-4.74,2.25-4.49,5.97-4.49,5.97v0.33c-0.01,0.07,0,0.36,0,0.43v2.53h35.51C43.97,18.08,43.97,16.88,43.97,16.3"/>
	</g>
</g>
</svg>
