<?xml version="1.0" encoding="utf-8"?>
<!-- Generator: Adobe Illustrator 28.0.0, SVG Export Plug-In . SVG Version: 6.00 Build 0)  -->
<svg version="1.1" id="Ebene_1" xmlns="http://www.w3.org/2000/svg" xmlns:xlink="http://www.w3.org/1999/xlink" x="0px" y="0px"
	 viewBox="0 0 52.4 52.4" style="enable-background:new 0 0 52.4 52.4;" xml:space="preserve">
<style type="text/css">
	.st0{clip-path:url(#SVGID_00000036953315601639813430000017303327002806698127_);fill:#00ABC4;}
</style>
<g>
	<defs>
		<rect id="SVGID_1_" x="13.7" y="8.4" width="24.9" height="35.7"/>
	</defs>
	<path style="clip-path:url(#SVGID_00000039831393785619011460000004006574066078959232_);fill:#00ABC4;" d="M17.7,17h2.4v24.2h-2.4
		V17z M25.2,17h2.4v24.2h-2.4V17z M32.6,17h2.4v24.2h-2.4V17z M14,13.9c0,0.1,0,0.2,0,0.4V39c0,0,0,5,5,5h14.5c0,0,5,0,5-5V18.6
		c0,0,0-4.5,0-4.7H14z M38.7,10.1h-9.6c0-1-1.2-1.7-2.7-1.7c-1.5,0-2.7,0.8-2.7,1.7h-9.9v2.5h24.9V10.1z"/>
</g>
</svg>
