<?xml version="1.0" encoding="utf-8"?>
<!-- Generator: Adobe Illustrator 28.0.0, SVG Export Plug-In . SVG Version: 6.00 Build 0)  -->
<svg version="1.1" id="Ebene_1" xmlns="http://www.w3.org/2000/svg" xmlns:xlink="http://www.w3.org/1999/xlink" x="0px" y="0px"
	 viewBox="0 0 52.4 52.4" style="enable-background:new 0 0 52.4 52.4;" xml:space="preserve">
<style type="text/css">
	.st0{clip-path:url(#SVGID_00000181791279184100092510000000611217505038794674_);fill:#00ABC4;}
</style>
<g>
	<defs>
		<rect id="SVGID_1_" x="3.6" y="10.9" width="45.2" height="30.6"/>
	</defs>
	<path style="clip-path:url(#SVGID_00000136398116790184093100000004346222993241870222_);fill:#00ABC4;" d="M25.2,22.4v-4.5
		c-4.2,0.5-7.4,4-7.4,8.4c0,1.1,0.2,2.2,0.6,3.2l3.8-2.2c-0.1-0.3-0.2-0.7-0.2-1C22.2,24.4,23.5,22.8,25.2,22.4 M29,29
		c-0.7,0.7-1.7,1.1-2.8,1.1c-1,0-2-0.4-2.7-1l-3.9,2.3c1.5,2,3.9,3.2,6.6,3.2c2.7,0,5.1-1.3,6.7-3.3L29,29z M30.1,27.1l3.9,2.2
		c0.4-1,0.6-2,0.6-3.1c0-4.2-3.1-7.7-7.1-8.3v4.6c1.6,0.5,2.8,2,2.8,3.7C30.2,26.5,30.2,26.8,30.1,27.1 M36.7,26.2
		c0,5.9-4.7,10.6-10.5,10.6s-10.5-4.8-10.5-10.6s4.7-10.6,10.5-10.6S36.7,20.3,36.7,26.2 M48.8,36v-1.2V17.6v-1.2
		c0-1.3-1.3-1.3-1.3-1.3H44c-1.3,0-1.3,1.3-1.3,1.3v1.2v0.4H39c-2.7-4.3-7.4-7.2-12.8-7.2S16,13.7,13.4,18.1H9.7v-0.4v-1.2
		C9.7,15,8.4,15,8.4,15H4.9c-1.3,0-1.3,1.3-1.3,1.3v1.2v17.2V36c0,0,0,1.3,1.3,1.3h3.4c0,0,1.3,0,1.3-1.3v-1.2v-0.3h3.7
		c2.7,4.2,7.4,7.1,12.8,7.1s10.1-2.8,12.8-7.1h3.7v0.3V36c0,0,0,1.3,1.3,1.3h3.4C47.5,37.4,48.8,37.4,48.8,36"/>
</g>
</svg>
